<svg width="145" height="113" viewBox="0 0 145 113" fill="none" xmlns="http://www.w3.org/2000/svg">
<mask id="mask0_154_3969" style="mask-type:luminance" maskUnits="userSpaceOnUse" x="0" y="13" width="57" height="77">
<path d="M43.55 24.07C37.94 35.66 42.79 49.61 54.38 55.22L56.85 89.27L0 59.22L17.73 13.46L43.55 24.07Z" fill="white"/>
</mask>
<g mask="url(#mask0_154_3969)">
<path d="M35.3601 50.4297C43.2136 50.4297 49.5801 44.0632 49.5801 36.2097C49.5801 28.3563 43.2136 21.9897 35.3601 21.9897C27.5066 21.9897 21.1401 28.3563 21.1401 36.2097C21.1401 44.0632 27.5066 50.4297 35.3601 50.4297Z" fill="black"/>
</g>
<mask id="mask1_154_3969" style="mask-type:luminance" maskUnits="userSpaceOnUse" x="12" y="0" width="78" height="113">
<path d="M78.0699 18.21C68.6899 33.9 73.8099 54.23 89.4999 63.6L88.7499 112.06L12.1099 62.49L42.8799 0L78.0699 18.21Z" fill="white"/>
</mask>
<g mask="url(#mask1_154_3969)">
<path d="M64.9798 54.5299C76.1249 54.5299 85.1598 45.495 85.1598 34.3499C85.1598 23.2048 76.1249 14.1699 64.9798 14.1699C53.8347 14.1699 44.7998 23.2048 44.7998 34.3499C44.7998 45.495 53.8347 54.5299 64.9798 54.5299Z" fill="black"/>
</g>
<path d="M111.7 69.4C129.76 69.4 144.4 54.7597 144.4 36.7C144.4 18.6403 129.76 4 111.7 4C93.6403 4 79 18.6403 79 36.7C79 54.7597 93.6403 69.4 111.7 69.4Z" fill="black"/>
</svg>
