<svg width="49" height="56" viewBox="0 0 49 56" fill="none" xmlns="http://www.w3.org/2000/svg">
<mask id="mask0_180_11868" style="mask-type:luminance" maskUnits="userSpaceOnUse" x="0" y="0" width="49" height="56">
<path d="M0 55.2195L49 55.2195L49 -8.7738e-05L2.46779e-09 -8.77402e-05L0 55.2195Z" fill="white"/>
</mask>
<g mask="url(#mask0_180_11868)">
<path fill-rule="evenodd" clip-rule="evenodd" d="M56.0511 0.00830078C64.5011 27.4372 72.7211 62.0424 88.521 84.9483C82.821 90.0743 78.801 92.8584 70.0611 97.522L69.9811 97.5622L56.0511 10.1195L42.1211 97.5622L42.0411 97.522C33.3011 92.8584 29.2911 90.0844 23.5811 84.9483C39.3811 62.0424 47.6011 27.4472 56.0511 0.00830078Z" fill="#0090FF"/>
<path fill-rule="evenodd" clip-rule="evenodd" d="M56.0506 -1.86133C44.9706 16.9941 31.4106 40.5534 14.1006 54.9764C15.9606 60.6753 18.0106 63.4795 20.8506 67.2184C35.1606 48.373 45.7506 21.5271 55.8106 0.0181878L56.0506 -1.86133Z" fill="#29E3E3"/>
<path fill-rule="evenodd" clip-rule="evenodd" d="M56.0512 -1.86133C45.8012 23.4669 30.9812 52.2828 10.9912 72.0227C11.3912 72.4951 14.5312 76.616 19.7312 81.5208C20.9112 82.6365 22.2012 83.7823 23.5912 84.9582C39.3812 62.0422 47.6012 27.4471 56.0512 0.0181878V-1.86133Z" fill="#00C7E3"/>
</g>
</svg>
