<svg width="62" height="66" viewBox="0 0 62 66" fill="none" xmlns="http://www.w3.org/2000/svg">
<g clip-path="url(#clip0_81_1061)">
<path d="M0.810547 27.9399C0.920088 28.3416 1.03693 28.7359 1.16108 29.1376C2.52668 33.4681 5.00961 37.784 8.07674 41.9173C8.82892 42.9324 9.61761 43.9329 10.4282 44.926C12.933 47.9713 15.7008 50.8851 18.505 53.609L30.5545 65.2933L30.8539 65.5781L30.9999 65.7169L31.146 65.5781L31.4454 65.2933L43.4949 53.609C46.2991 50.8924 49.0669 47.9713 51.5717 44.926C52.3896 43.9329 53.171 42.9324 53.9231 41.9173C56.9903 37.784 59.4732 33.4681 60.8388 29.1376C60.963 28.7359 61.0798 28.3416 61.1893 27.9399C61.1601 27.9911 49.1837 48.1027 30.9999 58.3776C12.8162 48.1027 0.839758 27.9911 0.810547 27.9399Z" fill="white"/>
<path fill-rule="evenodd" clip-rule="evenodd" d="M52.7987 0C57.1657 4.21366 59.7874 8.74865 61.0653 13.4443C62.3433 18.1618 62.2557 23.0473 61.1968 27.9402C61.1676 27.9913 49.1911 48.1029 31.0074 58.3779C31.9129 57.4431 32.8915 56.4426 33.9139 55.4057C37.0394 52.229 40.5228 48.6726 43.7798 44.919C48.4682 39.515 52.6672 33.6874 54.6243 27.9256C57.0634 19.0382 55.0187 10.662 49.2788 4.8636C50.4107 3.19128 51.5864 1.56278 52.7987 0ZM9.20149 0C4.83447 4.21366 2.2128 8.74865 0.942127 13.4443C-0.335848 18.1618 -0.248215 23.0473 0.810678 27.9402C0.839889 27.9913 12.8163 48.1029 31.0001 58.3779C30.0945 57.4431 29.116 56.4426 28.0936 55.4057C24.968 52.229 21.4846 48.6726 18.2276 44.919C13.5393 39.515 9.34024 33.6874 7.38312 27.9256C4.95131 19.0528 6.99607 10.6693 12.736 4.87091C11.5968 3.19128 10.421 1.56278 9.20149 0Z" fill="white"/>
</g>
<defs>
<clipPath id="clip0_81_1061">
<rect width="62" height="65.7244" fill="white"/>
</clipPath>
</defs>
</svg>
