<svg width="488" height="170" viewBox="0 0 488 170" fill="none" xmlns="http://www.w3.org/2000/svg">
<mask id="mask0_152_2342" style="mask-type:luminance" maskUnits="userSpaceOnUse" x="0" y="0" width="67" height="67">
<path d="M0 0V66.4197H66.4197L0 0Z" fill="white"/>
</mask>
<g mask="url(#mask0_152_2342)">
<path d="M0.000198364 119.002C29.0406 119.002 52.5824 95.46 52.5824 66.4196C52.5824 37.3793 29.0406 13.8374 0.000198364 13.8374C-29.0402 13.8374 -52.582 37.3793 -52.582 66.4196C-52.582 95.46 -29.0402 119.002 0.000198364 119.002Z" fill="black"/>
</g>
<mask id="mask1_152_2342" style="mask-type:luminance" maskUnits="userSpaceOnUse" x="88" y="0" width="115" height="67">
<path d="M88.5596 0V66.4197H156.824H202.949L88.5596 0Z" fill="white"/>
</mask>
<g mask="url(#mask1_152_2342)">
<path d="M88.5598 119.002C117.6 119.002 141.142 95.46 141.142 66.4196C141.142 37.3793 117.6 13.8374 88.5598 13.8374C59.5194 13.8374 35.9775 37.3793 35.9775 66.4196C35.9775 95.46 59.5194 119.002 88.5598 119.002Z" fill="black"/>
</g>
<mask id="mask2_152_2342" style="mask-type:luminance" maskUnits="userSpaceOnUse" x="165" y="0" width="115" height="102">
<path d="M165.126 0.000244141V66.4199L222.321 101.475L279.515 66.4199L165.126 0.000244141Z" fill="white"/>
</mask>
<g mask="url(#mask2_152_2342)">
<path d="M165.126 119.002C194.167 119.002 217.708 95.4602 217.708 66.4199C217.708 37.3795 194.167 13.8376 165.126 13.8376C136.086 13.8376 112.544 37.3795 112.544 66.4199C112.544 95.4602 136.086 119.002 165.126 119.002Z" fill="black"/>
</g>
<mask id="mask3_152_2342" style="mask-type:luminance" maskUnits="userSpaceOnUse" x="238" y="0" width="126" height="146">
<path d="M249.074 0V66.4197L238.004 145.754L363.463 66.4197L249.074 0Z" fill="white"/>
</mask>
<g mask="url(#mask3_152_2342)">
<path d="M249.073 119.002C278.114 119.002 301.656 95.46 301.656 66.4196C301.656 37.3793 278.114 13.8374 249.073 13.8374C220.033 13.8374 196.491 37.3793 196.491 66.4196C196.491 95.46 220.033 119.002 249.073 119.002Z" fill="black"/>
</g>
<mask id="mask4_152_2342" style="mask-type:luminance" maskUnits="userSpaceOnUse" x="332" y="0" width="156" height="170">
<path d="M373.61 0.000244141V66.4199H332.098V169.739L487.999 66.4199L373.61 0.000244141Z" fill="white"/>
</mask>
<g mask="url(#mask4_152_2342)">
<path d="M373.611 119.002C402.651 119.002 426.193 95.4602 426.193 66.4199C426.193 37.3795 402.651 13.8376 373.611 13.8376C344.57 13.8376 321.028 37.3795 321.028 66.4199C321.028 95.4602 344.57 119.002 373.611 119.002Z" fill="black"/>
</g>
<path d="M358.233 136.539C361.967 136.539 364.994 133.511 364.994 129.777C364.994 126.042 361.967 123.015 358.233 123.015C354.498 123.015 351.471 126.042 351.471 129.777C351.471 133.511 354.498 136.539 358.233 136.539Z" fill="black"/>
<path d="M390.833 136.539C394.568 136.539 397.595 133.511 397.595 129.777C397.595 126.042 394.568 123.015 390.833 123.015C387.099 123.015 384.071 126.042 384.071 129.777C384.071 133.511 387.099 136.539 390.833 136.539Z" fill="black"/>
</svg>
