<svg width="424" height="168" viewBox="0 0 424 168" fill="none" xmlns="http://www.w3.org/2000/svg">
<path d="M199.74 89.9399C204.783 89.9399 208.87 85.8523 208.87 80.8099C208.87 75.7676 204.783 71.6799 199.74 71.6799C194.698 71.6799 190.61 75.7676 190.61 80.8099C190.61 85.8523 194.698 89.9399 199.74 89.9399Z" fill="black"/>
<path d="M199.74 67.22L203.67 75.17L212.45 76.45L206.1 82.64L207.6 91.39L199.74 87.2599L191.89 91.39L193.39 82.64L187.04 76.45L195.82 75.17L199.74 67.22Z" fill="black"/>
<path d="M207.63 69.54L206.11 78.28L212.45 84.4901L203.67 85.7501L199.72 93.6901L195.81 85.73L187.04 84.4401L193.4 78.26L191.92 69.51L199.77 73.65L207.63 69.54Z" fill="black"/>
<mask id="mask0_152_2507" style="mask-type:luminance" maskUnits="userSpaceOnUse" x="0" y="0" width="424" height="168">
<path d="M424 0H0V168H424V0Z" fill="white"/>
</mask>
<g mask="url(#mask0_152_2507)">
<mask id="mask1_152_2507" style="mask-type:luminance" maskUnits="userSpaceOnUse" x="151" y="17" width="73" height="53">
<path d="M188.66 69.0601L151.15 55.3501L153.11 19.0501L221.79 17.5801L223.27 67.6101H213.94L188.66 69.0601Z" fill="white"/>
</mask>
<g mask="url(#mask1_152_2507)">
<path d="M223.27 72.6802C223.27 85.8202 212.62 96.4702 199.48 96.4702C186.34 96.4702 175.69 85.8202 175.69 72.6802C175.69 59.5402 186.34 48.8901 199.48 48.8901C212.61 48.8901 223.27 59.5402 223.27 72.6802ZM199.47 55.1401C189.78 55.1401 181.93 62.9902 181.93 72.6802C181.93 82.3702 189.78 90.2202 199.47 90.2202C209.16 90.2202 217.01 82.3702 217.01 72.6802C217.01 62.9902 209.16 55.1401 199.47 55.1401Z" fill="#1D1D1B"/>
</g>
<path d="M221.03 62.6902C221.03 62.6902 224.95 72.9902 236.73 72.9902C250.47 72.9902 431.58 72.9902 431.58 72.9902L431.8 79.3702H236.73C236.73 79.3702 219.56 79.3701 215.15 64.6501L221.03 62.6902Z" fill="#1D1D1B"/>
<path d="M177.871 62.6902C177.871 62.6902 173.951 72.9902 162.171 72.9902C148.431 72.9902 -8.67944 72.9902 -8.67944 72.9902L-8.89941 79.3702H162.181C162.181 79.3702 179.351 79.3701 183.761 64.6501L177.871 62.6902Z" fill="#1D1D1B"/>
<mask id="mask2_152_2507" style="mask-type:luminance" maskUnits="userSpaceOnUse" x="175" y="93" width="73" height="52">
<path d="M210.241 93.1399L247.751 106.86L245.791 143.16L177.111 144.63L175.631 94.5899H184.961L210.241 93.1399Z" fill="white"/>
</mask>
<g mask="url(#mask2_152_2507)">
<path d="M175.631 89.53C175.631 76.39 186.281 65.74 199.421 65.74C212.561 65.74 223.211 76.39 223.211 89.53C223.211 102.67 212.561 113.32 199.421 113.32C186.291 113.32 175.631 102.67 175.631 89.53ZM199.431 107.06C209.121 107.06 216.971 99.21 216.971 89.52C216.971 79.83 209.121 71.98 199.431 71.98C189.741 71.98 181.891 79.83 181.891 89.52C181.891 99.21 189.741 107.06 199.431 107.06Z" fill="#1D1D1B"/>
</g>
<path d="M177.871 99.5198C177.871 99.5198 173.951 89.2198 162.171 89.2198C148.431 89.2198 -8.67944 89.2198 -8.67944 89.2198L-8.89941 82.8398H162.181C162.181 82.8398 179.351 82.8399 183.761 97.5599L177.871 99.5198Z" fill="#1D1D1B"/>
<path d="M221.03 99.5198C221.03 99.5198 224.95 89.2198 236.73 89.2198C250.47 89.2198 431.58 89.2198 431.58 89.2198L431.8 82.8398H236.73C236.73 82.8398 219.56 82.8399 215.15 97.5599L221.03 99.5198Z" fill="#1D1D1B"/>
<mask id="mask3_152_2507" style="mask-type:luminance" maskUnits="userSpaceOnUse" x="166" y="107" width="101" height="73">
<path d="M214.48 107.66L266.72 126.76L263.99 177.32L168.33 179.37L166.28 109.67H179.26L214.48 107.66Z" fill="white"/>
</mask>
<g mask="url(#mask3_152_2507)">
<path d="M166.28 102.62C166.28 84.3202 181.12 69.4802 199.42 69.4802C217.72 69.4802 232.56 84.3202 232.56 102.62C232.56 120.92 217.72 135.76 199.42 135.76C181.12 135.76 166.28 120.92 166.28 102.62ZM199.42 127.05C212.91 127.05 223.85 116.11 223.85 102.62C223.85 89.1302 212.91 78.1902 199.42 78.1902C185.93 78.1902 174.99 89.1302 174.99 102.62C174.99 116.11 185.93 127.05 199.42 127.05Z" fill="#1D1D1B"/>
</g>
<path d="M169.39 116.54C169.39 116.54 163.92 102.19 147.52 102.19C128.38 102.19 -8.56012 102.19 -8.56012 102.19L-8.87012 93.3101H147.52C147.52 93.3101 171.44 93.3101 177.58 113.81L169.39 116.54Z" fill="#1D1D1B"/>
<path d="M229.51 116.54C229.51 116.54 234.98 102.19 251.38 102.19C270.52 102.19 431.46 102.19 431.46 102.19L431.77 93.3101H251.38C251.38 93.3101 227.46 93.3101 221.32 113.81L229.51 116.54Z" fill="#1D1D1B"/>
<mask id="mask4_152_2507" style="mask-type:luminance" maskUnits="userSpaceOnUse" x="158" y="123" width="124" height="89">
<path d="M217.84 123.84L281.73 147.2L278.39 209.05L161.39 211.55L158.88 126.31H174.76L217.84 123.84Z" fill="white"/>
</mask>
<g mask="url(#mask4_152_2507)">
<path d="M158.88 117.68C158.88 95.2902 177.03 77.1501 199.41 77.1501C221.8 77.1501 239.94 95.3002 239.94 117.68C239.94 140.07 221.79 158.21 199.41 158.21C177.03 158.21 158.88 140.07 158.88 117.68ZM199.41 147.56C215.91 147.56 229.29 134.18 229.29 117.68C229.29 101.18 215.91 87.8002 199.41 87.8002C182.91 87.8002 169.53 101.18 169.53 117.68C169.53 134.18 182.91 147.56 199.41 147.56Z" fill="#1D1D1B"/>
</g>
<path d="M162.68 134.71C162.68 134.71 155.99 117.16 135.94 117.16C112.53 117.16 -34.1698 117.16 -34.1698 117.16L-34.5498 106.29H135.94C135.94 106.29 165.19 106.29 172.71 131.36L162.68 134.71Z" fill="#1D1D1B"/>
<path d="M236.22 134.71C236.22 134.71 242.91 117.16 262.96 117.16C286.37 117.16 433.07 117.16 433.07 117.16L433.45 106.29H262.96C262.96 106.29 233.71 106.29 226.19 131.36L236.22 134.71Z" fill="#1D1D1B"/>
<mask id="mask5_152_2507" style="mask-type:luminance" maskUnits="userSpaceOnUse" x="132" y="-17" width="101" height="72">
<path d="M184.42 54.8699L132.18 35.7599L134.91 -14.8001L230.57 -16.8501L232.62 52.8499H219.64L184.42 54.8699Z" fill="white"/>
</mask>
<g mask="url(#mask5_152_2507)">
<path d="M232.62 59.8998C232.62 78.1998 217.78 93.0398 199.48 93.0398C181.18 93.0398 166.34 78.1998 166.34 59.8998C166.34 41.5998 181.18 26.7598 199.48 26.7598C217.78 26.7598 232.62 41.5998 232.62 59.8998ZM199.48 35.4698C185.99 35.4698 175.05 46.4098 175.05 59.8998C175.05 73.3898 185.99 84.3298 199.48 84.3298C212.97 84.3298 223.91 73.3898 223.91 59.8998C223.91 46.4098 212.97 35.4698 199.48 35.4698Z" fill="#1D1D1B"/>
</g>
<path d="M229.51 45.98C229.51 45.98 234.98 60.33 251.38 60.33C270.52 60.33 431.46 60.33 431.46 60.33L431.77 69.21H251.38C251.38 69.21 227.46 69.21 221.32 48.71L229.51 45.98Z" fill="#1D1D1B"/>
<path d="M169.39 45.98C169.39 45.98 163.92 60.33 147.52 60.33C128.38 60.33 -8.56012 60.33 -8.56012 60.33L-8.87012 69.21H147.52C147.52 69.21 171.44 69.21 177.58 48.71L169.39 45.98Z" fill="#1D1D1B"/>
<mask id="mask6_152_2507" style="mask-type:luminance" maskUnits="userSpaceOnUse" x="117" y="-50" width="124" height="89">
<path d="M181.06 38.68L117.17 15.32L120.51 -46.53L237.51 -49.03L240.02 36.21H224.14L181.06 38.68Z" fill="white"/>
</mask>
<g mask="url(#mask6_152_2507)">
<path d="M240.02 44.84C240.02 67.23 221.87 85.3701 199.49 85.3701C177.1 85.3701 158.96 67.22 158.96 44.84C158.96 22.45 177.11 4.31006 199.49 4.31006C221.87 4.31006 240.02 22.45 240.02 44.84ZM199.49 14.96C182.99 14.96 169.61 28.34 169.61 44.84C169.61 61.34 182.99 74.72 199.49 74.72C215.99 74.72 229.37 61.34 229.37 44.84C229.37 28.34 215.99 14.96 199.49 14.96Z" fill="#1D1D1B"/>
</g>
<path d="M236.22 27.8101C236.22 27.8101 242.91 45.36 262.96 45.36C286.37 45.36 433.07 45.36 433.07 45.36L433.45 56.22H262.96C262.96 56.22 233.71 56.22 226.19 31.15L236.22 27.8101Z" fill="#1D1D1B"/>
<path d="M162.68 27.8101C162.68 27.8101 155.99 45.36 135.94 45.36C112.53 45.36 -34.1698 45.36 -34.1698 45.36L-34.5498 56.23H135.94C135.94 56.23 165.19 56.23 172.71 31.16L162.68 27.8101Z" fill="#1D1D1B"/>
</g>
</svg>
