<svg width="440" height="210" viewBox="0 0 440 210" fill="none" xmlns="http://www.w3.org/2000/svg">
<mask id="mask0_125_2316" style="mask-type:luminance" maskUnits="userSpaceOnUse" x="240" y="6" width="182" height="86">
<path d="M240.038 91.9482L421.896 91.9482L421.896 6.0001L240.038 6.0001L240.038 91.9482Z" fill="white"/>
</mask>
<g mask="url(#mask0_125_2316)">
<path d="M337.306 149.664C369.009 149.664 394.71 123.963 394.71 92.2597C394.71 60.5562 369.009 34.8555 337.306 34.8555C305.602 34.8555 279.901 60.5562 279.901 92.2597C279.901 123.963 305.602 149.664 337.306 149.664Z" stroke="black" stroke-width="2.1651" stroke-miterlimit="10"/>
<path d="M337.401 142.597C365.26 142.597 387.844 120.013 387.844 92.1542C387.844 64.2951 365.26 41.7109 337.401 41.7109C309.542 41.7109 286.958 64.2951 286.958 92.1542C286.958 120.013 309.542 142.597 337.401 142.597Z" stroke="black" stroke-width="2.1651" stroke-miterlimit="10"/>
<path d="M337.402 135.128C361.136 135.128 380.376 115.888 380.376 92.1543C380.376 68.4203 361.136 49.1802 337.402 49.1802C313.668 49.1802 294.428 68.4203 294.428 92.1543C294.428 115.888 313.668 135.128 337.402 135.128Z" stroke="black" stroke-width="2.1651" stroke-miterlimit="10"/>
<path d="M337.402 128.071C357.238 128.071 373.319 111.991 373.319 92.1543C373.319 72.3177 357.238 56.2371 337.402 56.2371C317.565 56.2371 301.484 72.3177 301.484 92.1543C301.484 111.991 317.565 128.071 337.402 128.071Z" stroke="black" stroke-width="2.1651" stroke-miterlimit="10"/>
<path d="M337.401 121.015C353.34 121.015 366.262 108.093 366.262 92.1543C366.262 76.2152 353.34 63.2939 337.401 63.2939C321.462 63.2939 308.541 76.2152 308.541 92.1543C308.541 108.093 321.462 121.015 337.401 121.015Z" stroke="black" stroke-width="2.1651" stroke-miterlimit="10"/>
<path d="M337.401 113.948C349.438 113.948 359.195 104.191 359.195 92.1542C359.195 80.1178 349.438 70.3604 337.401 70.3604C325.365 70.3604 315.607 80.1178 315.607 92.1542C315.607 104.191 325.365 113.948 337.401 113.948Z" stroke="black" stroke-width="2.1651" stroke-miterlimit="10"/>
</g>
<mask id="mask1_125_2316" style="mask-type:luminance" maskUnits="userSpaceOnUse" x="82" y="6" width="183" height="86">
<path d="M82.2627 91.9482L264.121 91.9482L264.121 6.0001L82.2627 6.0001L82.2627 91.9482Z" fill="white"/>
</mask>
<g mask="url(#mask1_125_2316)">
<path d="M179.11 149.664C210.814 149.664 236.515 123.963 236.515 92.2597C236.515 60.5562 210.814 34.8555 179.11 34.8555C147.407 34.8555 121.706 60.5562 121.706 92.2597C121.706 123.963 147.407 149.664 179.11 149.664Z" stroke="black" stroke-width="2.1651" stroke-miterlimit="10"/>
<path d="M178.804 142.597C206.663 142.597 229.247 120.013 229.247 92.1542C229.247 64.2951 206.663 41.7109 178.804 41.7109C150.945 41.7109 128.36 64.2951 128.36 92.1542C128.36 120.013 150.945 142.597 178.804 142.597Z" stroke="black" stroke-width="2.1651" stroke-miterlimit="10"/>
<path d="M179.628 135.128C203.362 135.128 222.602 115.888 222.602 92.1543C222.602 68.4203 203.362 49.1802 179.628 49.1802C155.894 49.1802 136.654 68.4203 136.654 92.1543C136.654 115.888 155.894 135.128 179.628 135.128Z" stroke="black" stroke-width="2.1651" stroke-miterlimit="10"/>
<path d="M179.628 128.071C199.465 128.071 215.545 111.991 215.545 92.1543C215.545 72.3177 199.465 56.2371 179.628 56.2371C159.792 56.2371 143.711 72.3177 143.711 92.1543C143.711 111.991 159.792 128.071 179.628 128.071Z" stroke="black" stroke-width="2.1651" stroke-miterlimit="10"/>
<path d="M178.804 121.015C194.743 121.015 207.664 108.093 207.664 92.1543C207.664 76.2152 194.743 63.2939 178.804 63.2939C162.865 63.2939 149.943 76.2152 149.943 92.1543C149.943 108.093 162.865 121.015 178.804 121.015Z" stroke="black" stroke-width="2.1651" stroke-miterlimit="10"/>
<path d="M178.804 113.948C190.84 113.948 200.597 104.191 200.597 92.1542C200.597 80.1178 190.84 70.3604 178.804 70.3604C166.767 70.3604 157.01 80.1178 157.01 92.1542C157.01 104.191 166.767 113.948 178.804 113.948Z" stroke="black" stroke-width="2.1651" stroke-miterlimit="10"/>
</g>
<path d="M315.607 91.7324V118.311" stroke="black" stroke-width="2.1651" stroke-miterlimit="10"/>
<path d="M308.551 91.7324V118.311" stroke="black" stroke-width="2.1651" stroke-miterlimit="10"/>
<path d="M301.493 91.7324V118.311" stroke="black" stroke-width="2.1651" stroke-miterlimit="10"/>
<path d="M294.437 91.7324V118.311" stroke="black" stroke-width="2.1651" stroke-miterlimit="10"/>
<path d="M279.901 91.7324V118.311" stroke="black" stroke-width="2.1651" stroke-miterlimit="10"/>
<path d="M286.958 91.7324V118.311" stroke="black" stroke-width="2.1651" stroke-miterlimit="10"/>
<path d="M236.304 91.7324V118.311" stroke="black" stroke-width="2.1651" stroke-miterlimit="10"/>
<path d="M229.247 91.7324V118.311" stroke="black" stroke-width="2.1651" stroke-miterlimit="10"/>
<path d="M222.603 91.7324V118.311" stroke="black" stroke-width="2.1651" stroke-miterlimit="10"/>
<path d="M215.546 91.7324V118.311" stroke="black" stroke-width="2.1651" stroke-miterlimit="10"/>
<path d="M200.598 91.7324V118.311" stroke="black" stroke-width="2.1651" stroke-miterlimit="10"/>
<path d="M207.654 91.7324V118.311" stroke="black" stroke-width="2.1651" stroke-miterlimit="10"/>
<mask id="mask2_125_2316" style="mask-type:luminance" maskUnits="userSpaceOnUse" x="173" y="118" width="183" height="86">
<path d="M355.466 118.052H173.607V204H355.466V118.052Z" fill="white"/>
</mask>
<g mask="url(#mask2_125_2316)">
<path d="M258.203 175.14C289.907 175.14 315.607 149.439 315.607 117.735C315.607 86.0318 289.907 60.3311 258.203 60.3311C226.5 60.3311 200.799 86.0318 200.799 117.735C200.799 149.439 226.5 175.14 258.203 175.14Z" stroke="black" stroke-width="2.1651" stroke-miterlimit="10"/>
<path d="M258.098 168.284C285.957 168.284 308.541 145.7 308.541 117.841C308.541 89.9817 285.957 67.3975 258.098 67.3975C230.239 67.3975 207.654 89.9817 207.654 117.841C207.654 145.7 230.239 168.284 258.098 168.284Z" stroke="black" stroke-width="2.1651" stroke-miterlimit="10"/>
<path d="M258.519 160.872C282.253 160.872 301.493 141.632 301.493 117.898C301.493 94.1645 282.253 74.9243 258.519 74.9243C234.785 74.9243 215.545 94.1645 215.545 117.898C215.545 141.632 234.785 160.872 258.519 160.872Z" stroke="black" stroke-width="2.1651" stroke-miterlimit="10"/>
<path d="M258.52 153.816C278.356 153.816 294.437 137.735 294.437 117.898C294.437 98.0619 278.356 81.9812 258.52 81.9812C238.683 81.9812 222.603 98.0619 222.603 117.898C222.603 137.735 238.683 153.816 258.52 153.816Z" stroke="black" stroke-width="2.1651" stroke-miterlimit="10"/>
<path d="M258.098 146.701C274.037 146.701 286.958 133.78 286.958 117.841C286.958 101.902 274.037 88.9805 258.098 88.9805C242.159 88.9805 229.237 101.902 229.237 117.841C229.237 133.78 242.159 146.701 258.098 146.701Z" stroke="black" stroke-width="2.1651" stroke-miterlimit="10"/>
<path d="M258.098 139.635C270.134 139.635 279.891 129.877 279.891 117.841C279.891 105.804 270.134 96.0469 258.098 96.0469C246.061 96.0469 236.304 105.804 236.304 117.841C236.304 129.877 246.061 139.635 258.098 139.635Z" stroke="black" stroke-width="2.1651" stroke-miterlimit="10"/>
</g>
<path d="M157.001 91.7324V118.311" stroke="black" stroke-width="2.1651" stroke-miterlimit="10"/>
<path d="M149.943 91.7324V118.311" stroke="black" stroke-width="2.1651" stroke-miterlimit="10"/>
<path d="M143.721 91.1091L142.887 118.311" stroke="black" stroke-width="2.1651" stroke-miterlimit="10"/>
<path d="M136.655 91.5312L135.83 118.311" stroke="black" stroke-width="2.1651" stroke-miterlimit="10"/>
<path d="M121.716 90.9077L121.294 118.311" stroke="black" stroke-width="2.1651" stroke-miterlimit="10"/>
<path d="M128.352 91.7324V118.311" stroke="black" stroke-width="2.1651" stroke-miterlimit="10"/>
<path d="M77.6973 91.7324V118.311" stroke="black" stroke-width="2.1651" stroke-miterlimit="10"/>
<path d="M70.6396 91.7324V118.311" stroke="black" stroke-width="2.1651" stroke-miterlimit="10"/>
<path d="M63.9951 91.7324V118.311" stroke="black" stroke-width="2.1651" stroke-miterlimit="10"/>
<path d="M56.9385 91.7324V118.311" stroke="black" stroke-width="2.1651" stroke-miterlimit="10"/>
<path d="M41.9902 91.7324V118.311" stroke="black" stroke-width="2.1651" stroke-miterlimit="10"/>
<path d="M49.0566 91.7324V118.311" stroke="black" stroke-width="2.1651" stroke-miterlimit="10"/>
<mask id="mask3_125_2316" style="mask-type:luminance" maskUnits="userSpaceOnUse" x="15" y="118" width="182" height="86">
<path d="M196.858 118.052H15V204H196.858V118.052Z" fill="white"/>
</mask>
<g mask="url(#mask3_125_2316)">
<path d="M99.5966 175.14C131.3 175.14 157.001 149.439 157.001 117.735C157.001 86.0318 131.3 60.3311 99.5966 60.3311C67.8931 60.3311 42.1924 86.0318 42.1924 117.735C42.1924 149.439 67.8931 175.14 99.5966 175.14Z" stroke="black" stroke-width="2.1651" stroke-miterlimit="10"/>
<path d="M99.4911 168.284C127.35 168.284 149.934 145.7 149.934 117.841C149.934 89.9817 127.35 67.3975 99.4911 67.3975C71.6321 67.3975 49.0479 89.9817 49.0479 117.841C49.0479 145.7 71.6321 168.284 99.4911 168.284Z" stroke="black" stroke-width="2.1651" stroke-miterlimit="10"/>
<path d="M99.9135 160.872C123.647 160.872 142.888 141.632 142.888 117.898C142.888 94.1645 123.647 74.9243 99.9135 74.9243C76.1796 74.9243 56.9395 94.1645 56.9395 117.898C56.9395 141.632 76.1796 160.872 99.9135 160.872Z" stroke="black" stroke-width="2.1651" stroke-miterlimit="10"/>
<path d="M99.9133 153.816C119.75 153.816 135.83 137.735 135.83 117.898C135.83 98.0619 119.75 81.9812 99.9133 81.9812C80.0768 81.9812 63.9961 98.0619 63.9961 117.898C63.9961 137.735 80.0768 153.816 99.9133 153.816Z" stroke="black" stroke-width="2.1651" stroke-miterlimit="10"/>
<path d="M99.4912 146.701C115.43 146.701 128.352 133.78 128.352 117.841C128.352 101.902 115.43 88.9805 99.4912 88.9805C83.5521 88.9805 70.6309 101.902 70.6309 117.841C70.6309 133.78 83.5521 146.701 99.4912 146.701Z" stroke="black" stroke-width="2.1651" stroke-miterlimit="10"/>
<path d="M99.4911 139.635C111.528 139.635 121.285 129.877 121.285 117.841C121.285 105.804 111.528 96.0469 99.4911 96.0469C87.4547 96.0469 77.6973 105.804 77.6973 117.841C77.6973 129.877 87.4547 139.635 99.4911 139.635Z" stroke="black" stroke-width="2.1651" stroke-miterlimit="10"/>
</g>
<path d="M376.224 135.33C385.74 135.33 393.454 127.616 393.454 118.1C393.454 108.584 385.74 100.87 376.224 100.87C366.708 100.87 358.994 108.584 358.994 118.1C358.994 127.616 366.708 135.33 376.224 135.33Z" fill="black"/>
<path d="M60.266 83.429C69.7818 83.429 77.4959 75.7149 77.4959 66.1991C77.4959 56.6833 69.7818 48.9692 60.266 48.9692C50.7502 48.9692 43.0361 56.6833 43.0361 66.1991C43.0361 75.7149 50.7502 83.429 60.266 83.429Z" fill="black"/>
<path d="M346.175 169.502C355.691 169.502 363.405 161.788 363.405 152.272C363.405 142.756 355.691 135.042 346.175 135.042C336.659 135.042 328.945 142.756 328.945 152.272C328.945 161.788 336.659 169.502 346.175 169.502Z" fill="black"/>
<path d="M404.663 169.502C414.178 169.502 421.892 161.788 421.892 152.272C421.892 142.756 414.178 135.042 404.663 135.042C395.147 135.042 387.433 142.756 387.433 152.272C387.433 161.788 395.147 169.502 404.663 169.502Z" fill="black"/>
</svg>
