<svg width="326" height="61" viewBox="0 0 326 61" fill="none" xmlns="http://www.w3.org/2000/svg">
<path fill-rule="evenodd" clip-rule="evenodd" d="M70.0702 20.1184V31.4314H72.868V25.4644C72.868 23.3772 74.2189 22.5961 75.6915 22.5961C76.607 22.5961 77.1384 22.8458 77.7082 23.3324L78.9695 20.8995C78.3485 20.2785 77.228 19.8239 76.0564 19.8239C74.9104 19.8239 73.7387 20.0288 72.868 21.4309L72.6631 20.1248H70.0702V20.1184ZM85.3783 22.4297C87.2606 22.4297 88.4514 24.0815 88.4514 25.7781C88.4514 27.5004 87.4206 29.1074 85.3783 29.1074C83.3359 29.1074 82.3051 27.5004 82.3051 25.7781C82.2987 24.0879 83.3551 22.4297 85.3783 22.4297ZM85.3527 19.8879C81.7481 19.8879 79.5009 22.5513 79.5009 25.7845C79.5009 29.0433 81.7033 31.6811 85.3719 31.6811C89.0405 31.6811 91.2685 29.0433 91.2685 25.7845C91.2749 22.5449 88.9572 19.8879 85.3527 19.8879ZM104.329 31.425V25.4836C104.329 21.9239 102.197 19.9327 99.534 19.9327C98.1126 19.9327 96.9666 20.509 95.8142 21.6294L95.6285 20.0928H93.1252V31.425H95.9038V25.6437C95.9038 23.9214 97.0755 22.4745 98.7977 22.4745C100.59 22.4745 101.525 23.7806 101.525 25.5028V31.425H104.329ZM107.402 17.2245V20.1376H105.29V22.5449H107.402V27.4299C107.402 30.2534 109.01 31.6491 111.462 31.5595C112.313 31.5339 112.979 31.3994 113.779 31.0793L112.998 28.6912C112.582 28.8961 112.083 29.0369 111.647 29.0369C110.777 29.0369 110.181 28.5119 110.181 27.4299V22.5449H113.325V20.1376H110.207V16.9236L107.402 17.2245ZM115.162 16.9236C115.162 19.1004 118.466 19.1004 118.466 16.9236C118.466 14.7468 115.162 14.7468 115.162 16.9236ZM118.21 20.0672V31.425H115.412V20.0672H118.21ZM123.165 24.4528C123.575 22.9867 124.817 22.2504 126.334 22.2504C127.941 22.2504 129.087 22.9867 129.273 24.4528H123.165ZM131.956 26.7705C132.391 22.1096 130.029 19.7727 126.245 19.7727C122.576 19.7727 120.233 22.2504 120.233 25.6949C120.233 29.3187 122.551 31.7259 126.45 31.7259C128.172 31.7259 130.118 31.1305 131.315 29.8885L129.523 28.1214C128.883 28.7873 127.525 29.1778 126.494 29.1778C124.522 29.1778 123.306 28.1662 123.12 26.7705H131.956ZM134.113 20.1184V31.4314H136.911V25.4644C136.911 23.3772 138.262 22.5961 139.735 22.5961H139.76H140.964V19.9007C140.682 19.8495 140.394 19.8175 140.106 19.8175C138.96 19.8175 137.788 20.0224 136.918 21.4245L136.713 20.1184H134.113ZM60.4922 40.6445H58.5587L59.5254 38.4228L60.4922 40.6445ZM61.3245 42.5396H62.4001L60.0632 37.3216H58.994L56.6572 42.5396H57.72L58.1681 41.5536H60.8955L61.3245 42.5396ZM69.6924 38.25H70.768C71.9012 38.25 72.375 39.0631 72.4006 39.8762C72.4198 40.7277 71.9525 41.592 70.768 41.592H69.6924V38.25ZM70.7616 37.3216C70.1214 37.3216 69.3531 37.3216 68.7129 37.3216V42.5396C69.3531 42.5396 70.1214 42.5396 70.7616 42.5396C72.5863 42.5396 73.393 41.2079 73.3674 39.8826C73.3482 38.5957 72.5479 37.3216 70.7616 37.3216ZM84.9557 37.3216H83.8545L82.2731 41.3872L80.7045 37.3216H79.6033L81.7673 42.5652H82.7853L84.9557 37.3216ZM92.5618 42.5396V37.3216H91.5886V42.5396H92.5618ZM103.651 38.186C103.254 37.3793 102.415 37.1488 101.602 37.1488C100.642 37.1552 99.5852 37.5969 99.5852 38.6661C99.5852 39.8378 100.571 40.1195 101.634 40.2475C102.325 40.3244 102.838 40.5228 102.838 41.0158C102.838 41.5792 102.255 41.7969 101.64 41.7969C101.007 41.7969 100.405 41.5408 100.174 40.971L99.3547 41.3936C99.7452 42.3475 100.558 42.674 101.628 42.674C102.786 42.674 103.817 42.1746 103.817 41.0158C103.817 39.7738 102.806 39.492 101.717 39.3576C101.09 39.2808 100.558 39.1591 100.558 38.7046C100.558 38.3204 100.91 38.0131 101.64 38.0131C102.204 38.0131 102.697 38.2948 102.876 38.5957L103.651 38.186ZM113.043 38.1155C114.272 38.1155 114.765 39.1015 114.746 39.9786C114.733 40.8365 114.272 41.7585 113.043 41.7585C111.814 41.7585 111.353 40.843 111.327 39.985C111.308 39.1079 111.814 38.1155 113.043 38.1155ZM113.043 37.2256C111.244 37.2256 110.36 38.6021 110.36 39.9722C110.36 41.3423 111.212 42.6612 113.043 42.6612C114.874 42.6612 115.7 41.3103 115.719 39.9658C115.726 38.6021 114.836 37.2256 113.043 37.2256ZM124.939 38.2372C125.56 38.2372 125.835 38.6533 125.835 39.0759C125.835 39.492 125.566 39.9146 124.939 39.9146H123.44V38.2372H124.939ZM127.077 42.4756L125.496 40.6957C126.488 40.4972 126.815 39.7738 126.815 39.0567C126.815 38.1539 126.168 37.3344 124.939 37.328C124.113 37.3344 123.287 37.328 122.461 37.328V42.546H123.447V40.8045H124.394L125.912 42.546H127.083V42.4756H127.077ZM134.369 37.3216H133.198V37.3665L135.202 40.3884V42.546H136.188V40.3884L138.268 37.3665V37.3216H137.084L135.701 39.4792L134.369 37.3216ZM59.6791 31.425V25.4836H67.7333V22.6858H59.6791V18.3001H68.1943V15.3871H56.6508V31.425H59.6791Z" fill="white"/>
<path d="M81.1784 53.7885V50.0815H80.4869V51.6437H78.6622V50.0815H77.9644V53.7885H78.6622V52.2904H80.4869V53.7885H81.1784Z" fill="white"/>
<path d="M98.2599 51.2597H98.7657L99.1818 50.0688H98.5096L98.2599 51.2597Z" fill="white"/>
<path d="M87.6191 50.0815V52.2071C87.6191 52.841 87.2926 53.2315 86.71 53.2315C86.1338 53.2315 85.7496 52.873 85.7496 52.2071V50.0815H85.0518V52.2071C85.0518 53.3276 85.8072 53.8654 86.7036 53.8654C87.6383 53.8654 88.3106 53.3019 88.3106 52.2071V50.0815H87.6191Z" fill="white"/>
<path d="M92.2096 50.0688V53.7886H94.8218V53.142H92.9075V50.0688H92.2096Z" fill="white"/>
<path d="M112.755 53.7885V50.0815H112.063V51.6437H110.239V50.0815H109.535V53.7885H110.239V52.2904H112.063V53.7885H112.755Z" fill="white"/>
<path d="M119.401 53.0972H117.313V52.2585H119.324V51.6054H117.313V50.7475H119.401V50.0688H116.622C116.622 51.3109 116.622 52.553 116.622 53.7886H119.401V53.0972Z" fill="white"/>
<path d="M105.61 52.8342C105.367 53.0775 105.002 53.212 104.675 53.212C103.76 53.212 103.401 52.5718 103.395 51.9571C103.388 51.3361 103.779 50.6702 104.675 50.6702C105.002 50.6702 105.328 50.7791 105.571 51.0224L106.039 50.5742C105.655 50.1965 105.181 50.0044 104.675 50.0044C103.331 50.0044 102.703 50.9904 102.71 51.9635C102.716 52.9303 103.299 53.8778 104.675 53.8778C105.213 53.8778 105.706 53.705 106.084 53.3272L105.61 52.8342Z" fill="white"/>
<path fill-rule="evenodd" clip-rule="evenodd" d="M22.2892 18.0312C18.1725 28.147 12.2246 39.6585 4.19604 47.5463C4.3561 47.7319 5.61738 49.3774 7.70455 51.3429C8.17833 51.7911 8.69692 52.2456 9.25393 52.713C15.5923 43.564 18.8959 29.7412 22.2892 18.7803V18.0312Z" fill="white"/>
<path fill-rule="evenodd" clip-rule="evenodd" d="M22.2892 18.7803C18.8959 29.7348 15.5923 43.5575 9.25391 52.7129C11.546 54.7617 13.153 55.8693 16.6615 57.7324L16.6935 57.7516L22.2892 22.8202L27.8785 57.7516L27.9105 57.7324C31.419 55.8693 33.0324 54.7617 35.318 52.7129C28.9861 43.5575 25.6824 29.7412 22.2892 18.7803Z" fill="white"/>
<path fill-rule="evenodd" clip-rule="evenodd" d="M22.2891 18.0312C17.8395 25.5669 12.3911 34.9784 5.44446 40.7341C6.18714 43.0134 7.01304 44.1338 8.15267 45.6256C13.902 38.0963 18.1468 27.3723 22.1867 18.7803L22.2891 18.0312Z" fill="white"/>
<path fill-rule="evenodd" clip-rule="evenodd" d="M22.2892 18.0312C26.7388 25.5605 32.1809 34.9784 39.1339 40.7341C38.3912 43.0134 37.5653 44.1338 36.4257 45.6256C30.6763 38.0963 26.4315 27.3723 22.3916 18.7803L22.2892 18.0312Z" fill="white"/>
<path d="M43.9996 30.1444C43.9228 29.8563 43.8396 29.5682 43.7499 29.2801C42.7704 26.1685 40.9841 23.0634 38.7753 20.0862C38.2375 19.3564 37.6677 18.6329 37.085 17.9222C35.2796 15.7326 33.2948 13.6326 31.2717 11.6799L22.6092 3.27997L22.398 3.07509L22.2891 2.97266L22.1867 3.07509L21.9754 3.27997L13.3066 11.6863C11.2898 13.6454 9.29867 15.739 7.49319 17.9286C6.90417 18.6393 6.34076 19.3628 5.80296 20.0926C3.59414 23.0698 1.81427 26.1685 0.828306 29.2865C0.738673 29.5746 0.655442 29.8627 0.578613 30.1508C0.59782 30.106 9.21544 15.643 22.2891 8.25463C35.3628 15.643 43.9804 30.106 43.9996 30.1444Z" fill="white"/>
<path fill-rule="evenodd" clip-rule="evenodd" d="M6.61613 50.2349C3.47255 47.2065 1.59025 43.9477 0.674709 40.5673C-0.240832 37.174 -0.176808 33.6591 0.578673 30.1442C0.597881 30.1058 9.2155 15.6428 22.2892 8.25439C21.6361 8.92665 20.9319 9.64371 20.202 10.3928C17.9548 12.6784 15.445 15.233 13.1081 17.9348C9.74049 21.8211 6.71216 26.0146 5.31004 30.1506C3.55578 36.5402 5.02833 42.5648 9.15147 46.7328C8.33197 47.9364 7.48685 49.108 6.61613 50.2349ZM37.9622 50.2349C41.1058 47.2065 42.9881 43.9477 43.9036 40.5673C44.8192 37.174 44.7552 33.6591 43.9997 30.1442C43.9805 30.1058 35.3629 15.6428 22.2892 8.25439C22.9422 8.92665 23.6465 9.64371 24.3764 10.3928C26.6236 12.6784 29.1333 15.233 31.4702 17.9348C34.8379 21.8211 37.8662 26.0146 39.2683 30.1506C41.0226 36.5402 39.55 42.5648 35.4269 46.7328C36.2464 47.9364 37.0915 49.108 37.9622 50.2349Z" fill="white"/>
<path fill-rule="evenodd" clip-rule="evenodd" d="M22.2892 18.0312C18.1725 28.147 12.2246 39.6585 4.19604 47.5463C4.3561 47.7319 5.61738 49.3774 7.70455 51.3429C8.17833 51.7911 8.69692 52.2456 9.25393 52.713C15.5923 43.564 18.8959 29.7412 22.2892 18.7803V18.0312Z" fill="white"/>
<path fill-rule="evenodd" clip-rule="evenodd" d="M22.2892 18.0312C26.4059 28.147 32.3537 39.6585 40.3823 47.5463C40.2223 47.7319 38.961 49.3774 36.8738 51.3429C36.4001 51.7911 35.8815 52.2456 35.3245 52.713C28.9861 43.564 25.6825 29.7412 22.2892 18.7803V18.0312Z" fill="white"/>
<path d="M153.494 0V60.7241" stroke="white" stroke-width="0.749693" stroke-miterlimit="10"/>
<path d="M165.869 27.5791L171.245 15.5189H174.001L179.394 27.5791H176.465L172.054 16.9316H173.157L168.729 27.5791H165.869ZM168.557 24.9948L169.298 22.8756H175.5L176.258 24.9948H168.557ZM184.351 27.7169C183.478 27.7169 182.692 27.5217 181.991 27.1311C181.29 26.7291 180.733 26.1721 180.32 25.4599C179.918 24.7478 179.717 23.9093 179.717 22.9445C179.717 21.9682 179.918 21.124 180.32 20.4119C180.733 19.6997 181.29 19.1484 181.991 18.7579C182.692 18.3674 183.478 18.1721 184.351 18.1721C185.132 18.1721 185.816 18.3444 186.402 18.689C186.987 19.0336 187.441 19.5562 187.763 20.2568C188.084 20.9575 188.245 21.8534 188.245 22.9445C188.245 24.0242 188.09 24.9201 187.78 25.6322C187.47 26.3329 187.022 26.8555 186.436 27.2001C185.862 27.5446 185.167 27.7169 184.351 27.7169ZM184.816 25.5116C185.253 25.5116 185.649 25.4083 186.005 25.2015C186.361 24.9948 186.643 24.7019 186.849 24.3228C187.068 23.9323 187.177 23.4729 187.177 22.9445C187.177 22.4047 187.068 21.9452 186.849 21.5662C186.643 21.1872 186.361 20.8943 186.005 20.6875C185.649 20.4808 185.253 20.3774 184.816 20.3774C184.369 20.3774 183.967 20.4808 183.61 20.6875C183.254 20.8943 182.967 21.1872 182.749 21.5662C182.542 21.9452 182.439 22.4047 182.439 22.9445C182.439 23.4729 182.542 23.9323 182.749 24.3228C182.967 24.7019 183.254 24.9948 183.61 25.2015C183.967 25.4083 184.369 25.5116 184.816 25.5116ZM187.246 27.5791V25.6839L187.297 22.9273L187.125 20.1879V14.7952H189.813V27.5791H187.246ZM194.816 27.5791L190.922 18.3099H193.696L196.935 26.2869H195.557L198.916 18.3099H201.501L197.59 27.5791H194.816ZM202.597 27.5791V18.3099H205.285V27.5791H202.597ZM203.941 17.0178C203.447 17.0178 203.045 16.8742 202.735 16.5871C202.425 16.2999 202.27 15.9438 202.27 15.5189C202.27 15.0939 202.425 14.7378 202.735 14.4507C203.045 14.1635 203.447 14.0199 203.941 14.0199C204.435 14.0199 204.837 14.1578 205.147 14.4334C205.457 14.6976 205.612 15.0422 205.612 15.4672C205.612 15.9151 205.457 16.2884 205.147 16.5871C204.849 16.8742 204.447 17.0178 203.941 17.0178ZM210.898 27.7169C210.105 27.7169 209.342 27.625 208.607 27.4413C207.883 27.246 207.309 27.0048 206.884 26.7177L207.78 24.788C208.205 25.0522 208.704 25.2704 209.278 25.4427C209.864 25.6035 210.439 25.6839 211.001 25.6839C211.622 25.6839 212.058 25.6093 212.311 25.4599C212.575 25.3106 212.707 25.1039 212.707 24.8397C212.707 24.6215 212.604 24.4607 212.397 24.3573C212.202 24.2424 211.937 24.1563 211.604 24.0989C211.271 24.0414 210.904 23.984 210.502 23.9266C210.111 23.8691 209.715 23.7945 209.313 23.7026C208.911 23.5992 208.543 23.4499 208.21 23.2546C207.877 23.0594 207.607 22.7952 207.4 22.4621C207.205 22.129 207.108 21.6983 207.108 21.1699C207.108 20.5842 207.274 20.0673 207.607 19.6193C207.952 19.1714 208.446 18.8211 209.089 18.5684C209.732 18.3042 210.502 18.1721 211.398 18.1721C212.029 18.1721 212.673 18.241 213.327 18.3789C213.982 18.5167 214.528 18.7177 214.964 18.9819L214.068 20.8943C213.62 20.6301 213.166 20.4521 212.707 20.3602C212.259 20.2568 211.823 20.2051 211.398 20.2051C210.8 20.2051 210.364 20.2855 210.088 20.4463C209.813 20.6071 209.675 20.8139 209.675 21.0666C209.675 21.2963 209.772 21.4686 209.968 21.5834C210.174 21.6983 210.444 21.7902 210.777 21.8591C211.11 21.928 211.472 21.9912 211.863 22.0486C212.265 22.0946 212.667 22.1692 213.069 22.2726C213.471 22.376 213.833 22.5253 214.154 22.7205C214.487 22.9043 214.757 23.1628 214.964 23.4958C215.171 23.8175 215.274 24.2424 215.274 24.7708C215.274 25.3451 215.102 25.8562 214.757 26.3042C214.413 26.7406 213.913 27.0852 213.258 27.3379C212.615 27.5906 211.828 27.7169 210.898 27.7169ZM221.343 27.7169C220.355 27.7169 219.477 27.5102 218.707 27.0967C217.949 26.6832 217.346 26.1204 216.898 25.4083C216.461 24.6846 216.243 23.8634 216.243 22.9445C216.243 22.0142 216.461 21.1929 216.898 20.4808C217.346 19.7572 217.949 19.1944 218.707 18.7924C219.477 18.3789 220.355 18.1721 221.343 18.1721C222.319 18.1721 223.192 18.3789 223.962 18.7924C224.731 19.1944 225.334 19.7514 225.771 20.4636C226.207 21.1757 226.426 22.0027 226.426 22.9445C226.426 23.8634 226.207 24.6846 225.771 25.4083C225.334 26.1204 224.731 26.6832 223.962 27.0967C223.192 27.5102 222.319 27.7169 221.343 27.7169ZM221.343 25.5116C221.791 25.5116 222.193 25.4083 222.549 25.2015C222.905 24.9948 223.186 24.7019 223.393 24.3228C223.6 23.9323 223.703 23.4729 223.703 22.9445C223.703 22.4047 223.6 21.9452 223.393 21.5662C223.186 21.1872 222.905 20.8943 222.549 20.6875C222.193 20.4808 221.791 20.3774 221.343 20.3774C220.895 20.3774 220.493 20.4808 220.137 20.6875C219.781 20.8943 219.494 21.1872 219.276 21.5662C219.069 21.9452 218.965 22.4047 218.965 22.9445C218.965 23.4729 219.069 23.9323 219.276 24.3228C219.494 24.7019 219.781 24.9948 220.137 25.2015C220.493 25.4083 220.895 25.5116 221.343 25.5116ZM228.222 27.5791V18.3099H230.789V20.9287L230.427 20.1707C230.703 19.516 231.145 19.0221 231.754 18.689C232.363 18.3444 233.104 18.1721 233.976 18.1721V20.6531C233.862 20.6416 233.758 20.6358 233.666 20.6358C233.574 20.6244 233.477 20.6186 233.373 20.6186C232.638 20.6186 232.041 20.8311 231.582 21.2561C231.134 21.6696 230.91 22.3185 230.91 23.203V27.5791H228.222ZM237.066 31.0593C236.583 31.0593 236.107 30.9847 235.636 30.8354C235.165 30.686 234.78 30.4793 234.482 30.2151L235.464 28.3027C235.67 28.4865 235.906 28.6301 236.17 28.7334C236.446 28.8368 236.716 28.8885 236.98 28.8885C237.359 28.8885 237.657 28.7966 237.876 28.6128C238.105 28.4405 238.312 28.1477 238.496 27.7342L238.978 26.5971L239.185 26.3042L242.51 18.3099H245.095L240.908 28.1477C240.609 28.8942 240.265 29.48 239.874 29.905C239.495 30.33 239.07 30.6286 238.599 30.8009C238.14 30.9732 237.629 31.0593 237.066 31.0593ZM238.651 27.9409L234.516 18.3099H237.29L240.494 26.063L238.651 27.9409ZM255.223 27.7858C254.258 27.7858 253.333 27.6595 252.449 27.4068C251.564 27.1426 250.852 26.8038 250.312 26.3903L251.26 24.2884C251.777 24.6559 252.386 24.9603 253.086 25.2015C253.798 25.4312 254.516 25.5461 255.24 25.5461C255.791 25.5461 256.233 25.4944 256.567 25.391C256.911 25.2762 257.164 25.1211 257.325 24.9258C257.485 24.7306 257.566 24.5066 257.566 24.2539C257.566 23.9323 257.44 23.6796 257.187 23.4958C256.934 23.3006 256.601 23.1455 256.188 23.0307C255.774 22.9043 255.315 22.7895 254.809 22.6861C254.315 22.5712 253.816 22.4334 253.31 22.2726C252.816 22.1118 252.363 21.905 251.949 21.6524C251.536 21.3997 251.197 21.0666 250.933 20.6531C250.68 20.2396 250.554 19.7112 250.554 19.068C250.554 18.3789 250.737 17.7529 251.105 17.1901C251.484 16.6158 252.047 16.1621 252.793 15.829C253.552 15.4844 254.499 15.3121 255.636 15.3121C256.394 15.3121 257.141 15.404 257.876 15.5878C258.611 15.7601 259.26 16.0242 259.823 16.3803L258.961 18.4995C258.399 18.1779 257.836 17.9424 257.273 17.7931C256.71 17.6323 256.159 17.5519 255.619 17.5519C255.079 17.5519 254.637 17.615 254.292 17.7414C253.948 17.8677 253.701 18.0343 253.552 18.241C253.402 18.4363 253.328 18.666 253.328 18.9302C253.328 19.2403 253.454 19.493 253.707 19.6883C253.959 19.872 254.292 20.0213 254.706 20.1362C255.119 20.2511 255.573 20.3659 256.067 20.4808C256.572 20.5956 257.072 20.7277 257.566 20.8771C258.071 21.0264 258.531 21.2274 258.944 21.4801C259.358 21.7328 259.691 22.0658 259.943 22.4793C260.208 22.8928 260.34 23.4154 260.34 24.0472C260.34 24.7248 260.15 25.3451 259.771 25.9079C259.392 26.4707 258.824 26.9244 258.065 27.269C257.319 27.6136 256.371 27.7858 255.223 27.7858ZM266.657 27.7169C265.601 27.7169 264.67 27.5102 263.866 27.0967C263.074 26.6832 262.459 26.1204 262.023 25.4083C261.586 24.6846 261.368 23.8634 261.368 22.9445C261.368 22.0142 261.581 21.1929 262.006 20.4808C262.442 19.7572 263.034 19.1944 263.78 18.7924C264.527 18.3789 265.371 18.1721 266.313 18.1721C267.22 18.1721 268.036 18.3674 268.759 18.7579C269.494 19.1369 270.075 19.6883 270.5 20.4119C270.924 21.124 271.137 21.9797 271.137 22.979C271.137 23.0824 271.131 23.203 271.12 23.3408C271.108 23.4671 271.097 23.5877 271.085 23.7026H263.556V22.1348H269.673L268.639 22.5999C268.639 22.1175 268.541 21.6983 268.346 21.3422C268.151 20.9862 267.881 20.7105 267.536 20.5152C267.192 20.3085 266.79 20.2051 266.33 20.2051C265.871 20.2051 265.463 20.3085 265.107 20.5152C264.762 20.7105 264.492 20.9919 264.297 21.3595C264.102 21.7155 264.004 22.1405 264.004 22.6344V23.0479C264.004 23.5533 264.113 24.0012 264.332 24.3918C264.561 24.7708 264.877 25.0637 265.279 25.2704C265.693 25.4657 266.175 25.5633 266.726 25.5633C267.22 25.5633 267.651 25.4887 268.019 25.3393C268.398 25.19 268.742 24.966 269.052 24.6674L270.482 26.218C270.057 26.7004 269.523 27.0737 268.88 27.3379C268.237 27.5906 267.496 27.7169 266.657 27.7169ZM272.926 27.5791V18.3099H275.493V20.9287L275.132 20.1707C275.407 19.516 275.85 19.0221 276.458 18.689C277.067 18.3444 277.808 18.1721 278.681 18.1721V20.6531C278.566 20.6416 278.463 20.6358 278.371 20.6358C278.279 20.6244 278.181 20.6186 278.078 20.6186C277.343 20.6186 276.745 20.8311 276.286 21.2561C275.838 21.6696 275.614 22.3185 275.614 23.203V27.5791H272.926ZM283.114 27.5791L279.22 18.3099H281.994L285.233 26.2869H283.855L287.215 18.3099H289.799L285.888 27.5791H283.114ZM290.896 27.5791V18.3099H293.583V27.5791H290.896ZM292.239 17.0178C291.746 17.0178 291.344 16.8742 291.033 16.5871C290.723 16.2999 290.568 15.9438 290.568 15.5189C290.568 15.0939 290.723 14.7378 291.033 14.4507C291.344 14.1635 291.746 14.0199 292.239 14.0199C292.733 14.0199 293.135 14.1578 293.445 14.4334C293.756 14.6976 293.911 15.0422 293.911 15.4672C293.911 15.9151 293.756 16.2884 293.445 16.5871C293.147 16.8742 292.745 17.0178 292.239 17.0178ZM300.557 27.7169C299.558 27.7169 298.668 27.5159 297.887 27.1139C297.106 26.7004 296.491 26.1319 296.043 25.4083C295.607 24.6846 295.389 23.8634 295.389 22.9445C295.389 22.0142 295.607 21.1929 296.043 20.4808C296.491 19.7572 297.106 19.1944 297.887 18.7924C298.668 18.3789 299.558 18.1721 300.557 18.1721C301.534 18.1721 302.384 18.3789 303.107 18.7924C303.831 19.1944 304.365 19.7744 304.709 20.5325L302.625 21.6524C302.384 21.2159 302.079 20.8943 301.712 20.6875C301.356 20.4808 300.965 20.3774 300.54 20.3774C300.081 20.3774 299.667 20.4808 299.3 20.6875C298.932 20.8943 298.639 21.1872 298.421 21.5662C298.214 21.9452 298.111 22.4047 298.111 22.9445C298.111 23.4844 298.214 23.9438 298.421 24.3228C298.639 24.7019 298.932 24.9948 299.3 25.2015C299.667 25.4083 300.081 25.5116 300.54 25.5116C300.965 25.5116 301.356 25.414 301.712 25.2187C302.079 25.012 302.384 24.6846 302.625 24.2367L304.709 25.3738C304.365 26.1204 303.831 26.7004 303.107 27.1139C302.384 27.5159 301.534 27.7169 300.557 27.7169ZM310.739 27.7169C309.683 27.7169 308.752 27.5102 307.948 27.0967C307.156 26.6832 306.541 26.1204 306.105 25.4083C305.668 24.6846 305.45 23.8634 305.45 22.9445C305.45 22.0142 305.662 21.1929 306.087 20.4808C306.524 19.7572 307.115 19.1944 307.862 18.7924C308.609 18.3789 309.453 18.1721 310.395 18.1721C311.302 18.1721 312.118 18.3674 312.841 18.7579C313.576 19.1369 314.156 19.6883 314.581 20.4119C315.006 21.124 315.219 21.9797 315.219 22.979C315.219 23.0824 315.213 23.203 315.202 23.3408C315.19 23.4671 315.179 23.5877 315.167 23.7026H307.638V22.1348H313.754L312.721 22.5999C312.721 22.1175 312.623 21.6983 312.428 21.3422C312.232 20.9862 311.963 20.7105 311.618 20.5152C311.273 20.3085 310.871 20.2051 310.412 20.2051C309.952 20.2051 309.545 20.3085 309.189 20.5152C308.844 20.7105 308.574 20.9919 308.379 21.3595C308.184 21.7155 308.086 22.1405 308.086 22.6344V23.0479C308.086 23.5533 308.195 24.0012 308.413 24.3918C308.643 24.7708 308.959 25.0637 309.361 25.2704C309.774 25.4657 310.257 25.5633 310.808 25.5633C311.302 25.5633 311.733 25.4887 312.1 25.3393C312.479 25.19 312.824 24.966 313.134 24.6674L314.564 26.218C314.139 26.7004 313.605 27.0737 312.962 27.3379C312.319 27.5906 311.578 27.7169 310.739 27.7169ZM320.127 27.7169C319.334 27.7169 318.57 27.625 317.835 27.4413C317.112 27.246 316.537 27.0048 316.112 26.7177L317.008 24.788C317.433 25.0522 317.933 25.2704 318.507 25.4427C319.093 25.6035 319.667 25.6839 320.23 25.6839C320.85 25.6839 321.287 25.6093 321.539 25.4599C321.804 25.3106 321.936 25.1039 321.936 24.8397C321.936 24.6215 321.832 24.4607 321.626 24.3573C321.43 24.2424 321.166 24.1563 320.833 24.0989C320.5 24.0414 320.132 23.984 319.73 23.9266C319.34 23.8691 318.944 23.7945 318.542 23.7026C318.14 23.5992 317.772 23.4499 317.439 23.2546C317.106 23.0594 316.836 22.7952 316.629 22.4621C316.434 22.129 316.336 21.6983 316.336 21.1699C316.336 20.5842 316.503 20.0673 316.836 19.6193C317.18 19.1714 317.674 18.8211 318.318 18.5684C318.961 18.3042 319.73 18.1721 320.626 18.1721C321.258 18.1721 321.901 18.241 322.556 18.3789C323.211 18.5167 323.756 18.7177 324.193 18.9819L323.297 20.8943C322.849 20.6301 322.395 20.4521 321.936 20.3602C321.488 20.2568 321.051 20.2051 320.626 20.2051C320.029 20.2051 319.593 20.2855 319.317 20.4463C319.041 20.6071 318.903 20.8139 318.903 21.0666C318.903 21.2963 319.001 21.4686 319.196 21.5834C319.403 21.6983 319.673 21.7902 320.006 21.8591C320.339 21.928 320.701 21.9912 321.091 22.0486C321.493 22.0946 321.895 22.1692 322.297 22.2726C322.699 22.376 323.061 22.5253 323.383 22.7205C323.716 22.9043 323.986 23.1628 324.193 23.4958C324.399 23.8175 324.503 24.2424 324.503 24.7708C324.503 25.3451 324.33 25.8562 323.986 26.3042C323.641 26.7406 323.142 27.0852 322.487 27.3379C321.844 27.5906 321.057 27.7169 320.127 27.7169Z" fill="white"/>
<path d="M167.194 47.1455V37.278H169.478V45.2848H174.426V47.1455H167.194ZM180.253 47.1455V45.6654L180.112 45.3412V42.691C180.112 42.2212 179.967 41.8547 179.675 41.5915C179.393 41.3284 178.957 41.1968 178.364 41.1968C177.96 41.1968 177.561 41.2626 177.166 41.3942C176.781 41.5164 176.452 41.6855 176.18 41.9017L175.39 40.3651C175.804 40.0738 176.302 39.8483 176.884 39.6885C177.467 39.5288 178.059 39.4489 178.66 39.4489C179.816 39.4489 180.714 39.7214 181.353 40.2665C181.992 40.8115 182.311 41.662 182.311 42.8179V47.1455H180.253ZM177.942 47.2583C177.35 47.2583 176.842 47.1596 176.419 46.9623C175.996 46.7555 175.672 46.4783 175.447 46.1306C175.221 45.7829 175.108 45.3929 175.108 44.9606C175.108 44.5095 175.216 44.1148 175.432 43.7765C175.658 43.4382 176.01 43.175 176.49 42.9871C176.969 42.7897 177.594 42.691 178.364 42.691H180.38V43.9738H178.604C178.087 43.9738 177.73 44.0584 177.533 44.2276C177.345 44.3967 177.251 44.6082 177.251 44.8619C177.251 45.1438 177.359 45.3694 177.575 45.5385C177.801 45.6983 178.106 45.7782 178.491 45.7782C178.858 45.7782 179.187 45.6936 179.478 45.5244C179.769 45.3459 179.981 45.0874 180.112 44.7491L180.451 45.7641C180.291 46.2527 180 46.6239 179.577 46.8777C179.154 47.1314 178.609 47.2583 177.942 47.2583ZM187.403 47.2583C186.51 47.2583 185.815 47.0327 185.317 46.5817C184.819 46.1212 184.57 45.4398 184.57 44.5377V37.8842H186.769V44.5095C186.769 44.829 186.853 45.078 187.022 45.2566C187.191 45.4257 187.422 45.5103 187.713 45.5103C188.061 45.5103 188.357 45.4164 188.601 45.2284L189.193 46.779C188.968 46.9388 188.695 47.0609 188.376 47.1455C188.065 47.2207 187.741 47.2583 187.403 47.2583ZM183.4 41.4224V39.7308H188.657V41.4224H183.4ZM190.428 47.1455V39.5617H192.627V47.1455H190.428ZM191.527 38.5044C191.123 38.5044 190.794 38.387 190.54 38.152C190.287 37.9171 190.16 37.6257 190.16 37.278C190.16 36.9303 190.287 36.639 190.54 36.4041C190.794 36.1691 191.123 36.0517 191.527 36.0517C191.931 36.0517 192.26 36.1644 192.514 36.39C192.768 36.6061 192.894 36.888 192.894 37.2357C192.894 37.6023 192.768 37.9077 192.514 38.152C192.269 38.387 191.941 38.5044 191.527 38.5044ZM199.277 39.4489C199.878 39.4489 200.414 39.571 200.884 39.8154C201.363 40.0503 201.739 40.4168 202.012 40.9149C202.284 41.4036 202.42 42.0332 202.42 42.8038V47.1455H200.221V43.1421C200.221 42.5313 200.085 42.0802 199.813 41.7889C199.55 41.4976 199.174 41.3519 198.685 41.3519C198.337 41.3519 198.022 41.4271 197.74 41.5774C197.468 41.7184 197.252 41.9392 197.092 42.24C196.942 42.5407 196.867 42.926 196.867 43.3959V47.1455H194.667V39.5617H196.768V41.662L196.373 41.0277C196.646 40.5202 197.036 40.1302 197.543 39.8577C198.051 39.5851 198.629 39.4489 199.277 39.4489ZM207.264 47.1455L211.662 37.278H213.918L218.33 47.1455H215.933L212.325 38.4339H213.227L209.604 47.1455H207.264ZM209.463 45.031L210.069 43.2972H215.144L215.764 45.031H209.463ZM228.911 39.4489C229.512 39.4489 230.043 39.571 230.504 39.8154C230.974 40.0503 231.34 40.4168 231.603 40.9149C231.876 41.4036 232.012 42.0332 232.012 42.8038V47.1455H229.813V43.1421C229.813 42.5313 229.686 42.0802 229.432 41.7889C229.179 41.4976 228.822 41.3519 228.361 41.3519C228.042 41.3519 227.755 41.4271 227.501 41.5774C227.248 41.7184 227.05 41.9345 226.909 42.2259C226.768 42.5172 226.698 42.8884 226.698 43.3395V47.1455H224.499V43.1421C224.499 42.5313 224.372 42.0802 224.118 41.7889C223.874 41.4976 223.521 41.3519 223.061 41.3519C222.741 41.3519 222.455 41.4271 222.201 41.5774C221.947 41.7184 221.75 41.9345 221.609 42.2259C221.468 42.5172 221.398 42.8884 221.398 43.3395V47.1455H219.198V39.5617H221.299V41.6338L220.904 41.0277C221.167 40.5108 221.538 40.1208 222.018 39.8577C222.506 39.5851 223.061 39.4489 223.681 39.4489C224.377 39.4489 224.983 39.6274 225.5 39.9845C226.026 40.3323 226.374 40.8679 226.543 41.5915L225.767 41.3801C226.021 40.788 226.425 40.3182 226.98 39.9704C227.544 39.6227 228.187 39.4489 228.911 39.4489ZM237.802 47.2583C236.937 47.2583 236.176 47.0891 235.518 46.7508C234.87 46.4125 234.367 45.952 234.01 45.3694C233.653 44.7773 233.474 44.1054 233.474 43.3536C233.474 42.5924 233.648 41.9204 233.996 41.3378C234.353 40.7457 234.837 40.2853 235.448 39.9564C236.059 39.618 236.749 39.4489 237.52 39.4489C238.262 39.4489 238.93 39.6086 239.522 39.9282C240.123 40.2383 240.598 40.6894 240.945 41.2814C241.293 41.8641 241.467 42.5642 241.467 43.3818C241.467 43.4664 241.462 43.565 241.453 43.6778C241.444 43.7812 241.434 43.8798 241.425 43.9738H235.265V42.691H240.269L239.423 43.0717C239.423 42.677 239.343 42.3339 239.183 42.0426C239.024 41.7513 238.803 41.5257 238.521 41.366C238.239 41.1968 237.91 41.1123 237.534 41.1123C237.158 41.1123 236.825 41.1968 236.533 41.366C236.251 41.5257 236.031 41.756 235.871 42.0567C235.711 42.348 235.631 42.6957 235.631 43.0998V43.4382C235.631 43.8517 235.72 44.2182 235.899 44.5377C236.087 44.8478 236.345 45.0874 236.674 45.2566C237.013 45.4164 237.407 45.4962 237.858 45.4962C238.262 45.4962 238.615 45.4351 238.916 45.313C239.226 45.1908 239.508 45.0076 239.761 44.7632L240.931 46.0319C240.584 46.4266 240.147 46.732 239.62 46.9482C239.094 47.1549 238.488 47.2583 237.802 47.2583ZM242.931 47.1455V39.5617H245.031V41.7043L244.735 41.0841C244.961 40.5484 245.323 40.1443 245.821 39.8718C246.319 39.5898 246.925 39.4489 247.639 39.4489V41.4788C247.545 41.4694 247.461 41.4647 247.386 41.4647C247.31 41.4553 247.23 41.4506 247.146 41.4506C246.544 41.4506 246.056 41.6244 245.68 41.9721C245.313 42.3104 245.13 42.8414 245.13 43.565V47.1455H242.931ZM248.961 47.1455V39.5617H251.16V47.1455H248.961ZM250.06 38.5044C249.656 38.5044 249.327 38.387 249.073 38.152C248.82 37.9171 248.693 37.6257 248.693 37.278C248.693 36.9303 248.82 36.639 249.073 36.4041C249.327 36.1691 249.656 36.0517 250.06 36.0517C250.464 36.0517 250.793 36.1644 251.047 36.39C251.301 36.6061 251.427 36.888 251.427 37.2357C251.427 37.6023 251.301 37.9077 251.047 38.152C250.803 38.387 250.474 38.5044 250.06 38.5044ZM256.866 47.2583C256.048 47.2583 255.32 47.0938 254.681 46.7649C254.042 46.4266 253.539 45.9614 253.172 45.3694C252.815 44.7773 252.637 44.1054 252.637 43.3536C252.637 42.5924 252.815 41.9204 253.172 41.3378C253.539 40.7457 254.042 40.2853 254.681 39.9564C255.32 39.618 256.048 39.4489 256.866 39.4489C257.664 39.4489 258.36 39.618 258.952 39.9564C259.544 40.2853 259.981 40.7598 260.263 41.3801L258.557 42.2964C258.36 41.9392 258.111 41.6761 257.81 41.507C257.519 41.3378 257.199 41.2532 256.851 41.2532C256.476 41.2532 256.137 41.3378 255.837 41.507C255.536 41.6761 255.296 41.9157 255.118 42.2259C254.948 42.536 254.864 42.9119 254.864 43.3536C254.864 43.7953 254.948 44.1712 255.118 44.4813C255.296 44.7914 255.536 45.031 255.837 45.2002C256.137 45.3694 256.476 45.4539 256.851 45.4539C257.199 45.4539 257.519 45.3741 257.81 45.2143C258.111 45.0451 258.36 44.7773 258.557 44.4108L260.263 45.3412C259.981 45.952 259.544 46.4266 258.952 46.7649C258.36 47.0938 257.664 47.2583 256.866 47.2583ZM266.181 47.1455V45.6654L266.04 45.3412V42.691C266.04 42.2212 265.894 41.8547 265.603 41.5915C265.321 41.3284 264.884 41.1968 264.292 41.1968C263.888 41.1968 263.488 41.2626 263.094 41.3942C262.708 41.5164 262.379 41.6855 262.107 41.9017L261.318 40.3651C261.731 40.0738 262.229 39.8483 262.812 39.6885C263.394 39.5288 263.986 39.4489 264.588 39.4489C265.744 39.4489 266.641 39.7214 267.28 40.2665C267.919 40.8115 268.239 41.662 268.239 42.8179V47.1455H266.181ZM263.869 47.2583C263.277 47.2583 262.769 47.1596 262.347 46.9623C261.924 46.7555 261.599 46.4783 261.374 46.1306C261.148 45.7829 261.036 45.3929 261.036 44.9606C261.036 44.5095 261.144 44.1148 261.36 43.7765C261.585 43.4382 261.938 43.175 262.417 42.9871C262.896 42.7897 263.521 42.691 264.292 42.691H266.308V43.9738H264.531C264.015 43.9738 263.658 44.0584 263.46 44.2276C263.272 44.3967 263.178 44.6082 263.178 44.8619C263.178 45.1438 263.286 45.3694 263.502 45.5385C263.728 45.6983 264.033 45.7782 264.419 45.7782C264.785 45.7782 265.114 45.6936 265.405 45.5244C265.697 45.3459 265.908 45.0874 266.04 44.7491L266.378 45.7641C266.218 46.2527 265.927 46.6239 265.504 46.8777C265.081 47.1314 264.536 47.2583 263.869 47.2583Z" fill="white"/>
</svg>
