<svg width="325" height="61" viewBox="0 0 325 61" fill="none" xmlns="http://www.w3.org/2000/svg">
<g clip-path="url(#clip0_196_12890)">
<path fill-rule="evenodd" clip-rule="evenodd" d="M69.5982 20.185V31.4215H72.38V25.4989C72.38 23.4232 73.7252 22.6502 75.1861 22.6502C76.0991 22.6502 76.6226 22.8997 77.1887 23.3806L78.4426 20.9641C77.8278 20.3493 76.7078 19.8928 75.5513 19.8928C74.413 19.8928 73.2504 20.0997 72.3861 21.4876L72.1791 20.1911H69.5982V20.185ZM84.7974 22.4858C86.6661 22.4858 87.853 24.1293 87.853 25.8154C87.853 27.5258 86.8304 29.1206 84.7974 29.1206C82.7704 29.1206 81.7417 27.5258 81.7417 25.8154C81.7417 24.1293 82.7948 22.4858 84.7974 22.4858ZM84.773 19.9597C81.1939 19.9597 78.96 22.6015 78.96 25.8154C78.96 29.0537 81.1452 31.6711 84.7913 31.6711C88.4374 31.6711 90.6469 29.0476 90.6469 25.8154C90.653 22.6015 88.3522 19.9597 84.773 19.9597ZM103.618 31.4215V25.5171C103.618 21.9867 101.5 20.0024 98.8582 20.0024C97.4461 20.0024 96.3078 20.5745 95.1696 21.6884L94.9869 20.1606H92.5035V31.4154H95.2609V25.6754C95.2609 23.965 96.4235 22.5284 98.1339 22.5284C99.9113 22.5284 100.849 23.825 100.849 25.5354V31.4154H103.618V31.4215ZM106.674 17.3119V20.2032H104.58V22.5954H106.674V27.4467C106.674 30.2467 108.269 31.6406 110.71 31.5493C111.55 31.525 112.213 31.3911 113.01 31.0684L112.237 28.7006C111.83 28.9076 111.324 29.0415 110.892 29.0415C110.028 29.0415 109.431 28.518 109.431 27.4467V22.5954H112.554V20.2032H109.456V17.0137L106.674 17.3119ZM114.374 17.0197C114.374 19.1867 117.655 19.1867 117.655 17.0197C117.655 14.8528 114.374 14.8528 114.374 17.0197ZM117.405 20.1424V31.4215H114.623V20.1424H117.405ZM122.33 24.4945C122.737 23.0337 123.973 22.3093 125.477 22.3093C127.071 22.3093 128.21 23.0397 128.392 24.4945H122.33ZM131.058 26.7954C131.49 22.1693 129.147 19.8441 125.385 19.8441C121.739 19.8441 119.414 22.3032 119.414 25.7241C119.414 29.3215 121.715 31.7197 125.592 31.7197C127.303 31.7197 129.238 31.1293 130.425 29.8997L128.648 28.1467C128.009 28.8102 126.663 29.1937 125.641 29.1937C123.681 29.1937 122.476 28.1893 122.293 26.8015H131.058V26.7954ZM133.201 20.185V31.4215H135.983V25.4989C135.983 23.4232 137.328 22.6502 138.783 22.6502H138.807H140V19.9719C139.726 19.9171 139.434 19.8928 139.148 19.8928C138.01 19.8928 136.847 20.0997 135.983 21.4876L135.776 20.1911H133.201V20.185ZM60.0843 40.5702H58.1609L59.1226 38.3606L60.0843 40.5702ZM60.9122 42.4571H61.9774L59.6522 37.2771H58.5869L56.2617 42.4632H57.3208L57.7652 41.4893H60.4739L60.9122 42.4571ZM69.2148 38.1963H70.28C71.4061 38.1963 71.8748 39.0058 71.8991 39.8154C71.9235 40.6615 71.4548 41.5197 70.28 41.5197H69.2148V38.1963ZM70.28 37.2771C69.6408 37.2771 68.88 37.2771 68.2469 37.2771V42.4632C68.88 42.4632 69.6469 42.4632 70.28 42.4632C72.0939 42.4632 72.8913 41.1424 72.8669 39.8276C72.8487 38.5371 72.0574 37.2771 70.28 37.2771ZM84.3774 37.2771H83.2817L81.7113 41.3128L80.153 37.2771H79.0574L81.2122 42.4815H82.2226L84.3774 37.2771ZM91.9313 42.4571V37.2711H90.9635V42.4571H91.9313ZM102.943 38.1293C102.553 37.3319 101.713 37.1006 100.91 37.1006C99.9539 37.1067 98.9069 37.545 98.9069 38.6102C98.9069 39.7728 99.8809 40.0528 100.94 40.1806C101.628 40.2537 102.139 40.4545 102.139 40.9415C102.139 41.5015 101.561 41.7206 100.946 41.7206C100.319 41.7206 99.7165 41.4711 99.4913 40.8989L98.6756 41.3189C99.0591 42.2684 99.8748 42.5911 100.934 42.5911C102.09 42.5911 103.107 42.098 103.107 40.9415C103.107 39.7058 102.103 39.4258 101.019 39.2919C100.398 39.2189 99.8626 39.0911 99.8626 38.6406C99.8626 38.2571 100.21 37.9528 100.934 37.9528C101.494 37.9528 101.981 38.2328 102.163 38.5311L102.943 38.1293ZM112.274 38.0684C113.491 38.0684 113.984 39.0424 113.966 39.9189C113.954 40.7711 113.491 41.6841 112.274 41.6841C111.057 41.6841 110.594 40.7771 110.57 39.925C110.551 39.0484 111.05 38.0684 112.274 38.0684ZM112.274 37.1797C110.484 37.1797 109.614 38.5493 109.614 39.9067C109.614 41.2702 110.454 42.5789 112.274 42.5789C114.094 42.5789 114.916 41.2397 114.928 39.9006C114.94 38.5432 114.051 37.1797 112.274 37.1797ZM124.089 38.1841C124.703 38.1841 124.977 38.598 124.977 39.018C124.977 39.4319 124.71 39.8519 124.089 39.8519H122.603V38.1902H124.089V38.1841ZM126.213 42.3902L124.643 40.625C125.629 40.4241 125.951 39.7058 125.951 38.9937C125.951 38.0928 125.306 37.2832 124.089 37.2771C123.267 37.2832 122.445 37.2771 121.623 37.2771V42.4632H122.597V40.7345H123.535L125.044 42.4632H126.207V42.3902H126.213ZM133.457 37.2771H132.294V37.3197L134.284 40.3206V42.4632H135.258V40.3206L137.322 37.3197V37.2771H136.147L134.771 39.4197L133.457 37.2771ZM59.2748 31.4215V25.5171H67.273V22.7354H59.2748V18.3832H67.7295V15.4919H56.2678V31.4215H59.2748Z" fill="#002898"/>
<path d="M80.6273 53.6269V49.9443H79.9395V51.4965H78.1256V49.9443H77.4316V53.6269H78.1256V52.1417H79.9395V53.6269H80.6273Z" fill="#008CFF"/>
<path d="M97.5918 51.1191H98.097L98.5048 49.9321H97.8414L97.5918 51.1191Z" fill="#008CFF"/>
<path d="M87.019 49.9443V52.0565C87.019 52.6896 86.6903 53.073 86.1181 53.073C85.5459 53.073 85.1624 52.72 85.1624 52.0565V49.9443H84.4746V52.0565C84.4746 53.1704 85.2294 53.7061 86.112 53.7061C87.0372 53.7061 87.7068 53.1461 87.7068 52.0565V49.9443H87.019Z" fill="#008CFF"/>
<path d="M91.584 49.9321V53.6269H94.177V52.9817H92.2779V49.9321H91.584Z" fill="#008CFF"/>
<path d="M111.989 53.6269V49.9443H111.301V51.4965H109.487V49.9443H108.793V53.6269H109.487V52.1417H111.301V53.6269H111.989Z" fill="#008CFF"/>
<path d="M118.586 52.9391H116.516V52.1052H118.513V51.46H116.516V50.6078H118.586V49.9321H115.822C115.822 51.1617 115.822 52.3973 115.822 53.6269H118.586V52.9391Z" fill="#008CFF"/>
<path d="M104.889 52.6832C104.645 52.9267 104.28 53.0545 103.964 53.0545C103.051 53.0545 102.698 52.4154 102.692 51.8067C102.685 51.1919 103.069 50.5285 103.964 50.5285C104.286 50.5285 104.609 50.638 104.852 50.8754L105.315 50.425C104.938 50.0537 104.463 49.8589 103.964 49.8589C102.631 49.8589 102.004 50.8389 102.01 51.8006C102.016 52.7624 102.594 53.6998 103.964 53.6998C104.493 53.6998 104.986 53.5232 105.364 53.1519L104.889 52.6832Z" fill="#008CFF"/>
<path fill-rule="evenodd" clip-rule="evenodd" d="M22.1386 18.1152C18.0482 28.1648 12.1438 39.5961 4.16992 47.43C4.32818 47.6187 5.5821 49.25 7.65775 51.1978C8.12644 51.6422 8.64384 52.0987 9.19775 52.5613C15.4977 43.4735 18.7725 29.7413 22.1447 18.8639V18.1152H22.1386Z" fill="#00D9F5"/>
<path fill-rule="evenodd" clip-rule="evenodd" d="M22.1384 18.8579C18.7723 29.7414 15.4914 43.4675 9.19141 52.5614C11.4679 54.5944 13.0627 55.6962 16.5505 57.5466L16.581 57.5649L22.1323 22.8692L27.6836 57.5649L27.714 57.5466C31.2018 55.6962 32.8027 54.5944 35.0731 52.5614C28.7914 43.4675 25.5105 29.7414 22.1384 18.8579Z" fill="#00A2FF"/>
<path fill-rule="evenodd" clip-rule="evenodd" d="M22.1391 18.1152C17.726 25.5961 12.3147 34.9457 5.41211 40.6613C6.15472 42.9257 6.97037 44.0335 8.10254 45.5187C13.8121 38.0378 18.0304 27.3918 22.0417 18.8578L22.1391 18.1152Z" fill="#29F5F5"/>
<path fill-rule="evenodd" clip-rule="evenodd" d="M22.1387 18.1152C26.5578 25.5961 31.963 34.9457 38.8656 40.6613C38.123 42.9257 37.3074 44.0335 36.1752 45.5187C30.4656 38.0378 26.2474 27.3918 22.2361 18.8578L22.1387 18.1152Z" fill="#29F5F5"/>
<path d="M43.704 30.1431C43.6249 29.8571 43.5457 29.571 43.4544 29.2849C42.4805 26.1927 40.7092 23.1127 38.5179 20.1545C37.9822 19.4301 37.4162 18.7118 36.8379 18.0058C35.0483 15.8327 33.0701 13.751 31.0675 11.8031L22.4544 3.46402L22.2414 3.25706L22.1379 3.15967L22.0344 3.26315L21.8214 3.46402L13.2205 11.8092C11.2179 13.751 9.23964 15.8388 7.45007 18.0118C6.86572 18.7179 6.30572 19.4362 5.77007 20.1605C3.57877 23.1127 1.80746 26.1988 0.83355 29.291C0.742245 29.5771 0.663115 29.8631 0.583984 30.1492C0.602245 30.1127 9.16051 15.7475 22.144 8.40662C35.1275 15.7475 43.6796 30.1127 43.704 30.1431Z" fill="#00A2FF"/>
<path fill-rule="evenodd" clip-rule="evenodd" d="M6.57351 50.0965C3.45699 47.0896 1.58221 43.8513 0.669167 40.4974C-0.243876 37.1252 -0.17692 33.6374 0.577863 30.1435C0.596124 30.107 9.15438 15.7417 22.1379 8.40088C21.4926 9.07044 20.7926 9.78262 20.0622 10.5191C17.8344 12.7896 15.3387 15.3278 13.0135 18.0061C9.66569 21.8652 6.66482 26.0287 5.27091 30.1435C3.53612 36.4922 4.99699 42.4757 9.09351 46.6209C8.27786 47.82 7.43786 48.9826 6.57351 50.0965ZM37.7083 50.0965C40.8248 47.0896 42.6996 43.8513 43.6126 40.4974C44.5257 37.1252 44.4587 33.6374 43.7039 30.1435C43.6857 30.107 35.1274 15.7417 22.1439 8.40088C22.7892 9.07044 23.4892 9.78262 24.2196 10.5191C26.4474 12.7896 28.9431 15.3278 31.2683 18.0061C34.6161 21.8652 37.617 26.0287 39.0109 30.1435C40.7518 36.4922 39.2909 42.4757 35.1944 46.6148C36.0039 47.82 36.8439 48.9826 37.7083 50.0965Z" fill="#1CEDED"/>
<path fill-rule="evenodd" clip-rule="evenodd" d="M22.1386 18.1152C18.0482 28.1648 12.1438 39.5961 4.16992 47.43C4.32818 47.6187 5.5821 49.25 7.65775 51.1978C8.12644 51.6422 8.64384 52.0987 9.19775 52.5613C15.4977 43.4735 18.7725 29.7413 22.1447 18.8639V18.1152H22.1386Z" fill="#00D9F5"/>
<path fill-rule="evenodd" clip-rule="evenodd" d="M22.1387 18.1152C26.2291 28.1648 32.1395 39.5961 40.1135 47.43C39.9552 47.6187 38.7013 49.25 36.6256 51.1978C36.1569 51.6422 35.6395 52.0987 35.0856 52.5613C28.7917 43.4674 25.5108 29.7413 22.1387 18.8578V18.1152Z" fill="#00D9F5"/>
</g>
<path d="M152.529 0V60.7241" stroke="#04001D" stroke-width="0.749693" stroke-miterlimit="10"/>
<path d="M164.905 27.5791L170.281 15.5189H173.038L178.43 27.5791H175.501L171.091 16.9316H172.193L167.765 27.5791H164.905ZM167.593 24.9948L168.334 22.8756H174.536L175.295 24.9948H167.593ZM183.388 27.7169C182.515 27.7169 181.728 27.5217 181.027 27.1311C180.327 26.7291 179.77 26.1721 179.356 25.4599C178.954 24.7478 178.753 23.9093 178.753 22.9445C178.753 21.9682 178.954 21.124 179.356 20.4119C179.77 19.6997 180.327 19.1484 181.027 18.7579C181.728 18.3674 182.515 18.1721 183.388 18.1721C184.169 18.1721 184.852 18.3444 185.438 18.689C186.024 19.0336 186.477 19.5562 186.799 20.2568C187.121 20.9575 187.281 21.8534 187.281 22.9445C187.281 24.0242 187.126 24.9201 186.816 25.6322C186.506 26.3329 186.058 26.8555 185.472 27.2001C184.898 27.5446 184.203 27.7169 183.388 27.7169ZM183.853 25.5116C184.289 25.5116 184.686 25.4083 185.042 25.2015C185.398 24.9948 185.679 24.7019 185.886 24.3228C186.104 23.9323 186.213 23.4729 186.213 22.9445C186.213 22.4047 186.104 21.9452 185.886 21.5662C185.679 21.1872 185.398 20.8943 185.042 20.6875C184.686 20.4808 184.289 20.3774 183.853 20.3774C183.405 20.3774 183.003 20.4808 182.647 20.6875C182.291 20.8943 182.004 21.1872 181.785 21.5662C181.579 21.9452 181.475 22.4047 181.475 22.9445C181.475 23.4729 181.579 23.9323 181.785 24.3228C182.004 24.7019 182.291 24.9948 182.647 25.2015C183.003 25.4083 183.405 25.5116 183.853 25.5116ZM186.282 27.5791V25.6839L186.334 22.9273L186.162 20.1879V14.7952H188.849V27.5791H186.282ZM193.852 27.5791L189.958 18.3099H192.732L195.971 26.2869H194.593L197.953 18.3099H200.537L196.626 27.5791H193.852ZM201.634 27.5791V18.3099H204.321V27.5791H201.634ZM202.978 17.0178C202.484 17.0178 202.082 16.8742 201.772 16.5871C201.461 16.2999 201.306 15.9438 201.306 15.5189C201.306 15.0939 201.461 14.7378 201.772 14.4507C202.082 14.1635 202.484 14.0199 202.978 14.0199C203.472 14.0199 203.874 14.1578 204.184 14.4334C204.494 14.6976 204.649 15.0422 204.649 15.4672C204.649 15.9151 204.494 16.2884 204.184 16.5871C203.885 16.8742 203.483 17.0178 202.978 17.0178ZM209.934 27.7169C209.142 27.7169 208.378 27.625 207.643 27.4413C206.919 27.246 206.345 27.0048 205.92 26.7177L206.816 24.788C207.241 25.0522 207.741 25.2704 208.315 25.4427C208.901 25.6035 209.475 25.6839 210.038 25.6839C210.658 25.6839 211.094 25.6093 211.347 25.4599C211.611 25.3106 211.743 25.1039 211.743 24.8397C211.743 24.6215 211.64 24.4607 211.433 24.3573C211.238 24.2424 210.974 24.1563 210.641 24.0989C210.308 24.0414 209.94 23.984 209.538 23.9266C209.148 23.8691 208.751 23.7945 208.349 23.7026C207.947 23.5992 207.58 23.4499 207.247 23.2546C206.914 23.0594 206.644 22.7952 206.437 22.4621C206.242 22.129 206.144 21.6983 206.144 21.1699C206.144 20.5842 206.311 20.0673 206.644 19.6193C206.988 19.1714 207.482 18.8211 208.125 18.5684C208.769 18.3042 209.538 18.1721 210.434 18.1721C211.066 18.1721 211.709 18.241 212.364 18.3789C213.018 18.5167 213.564 18.7177 214 18.9819L213.104 20.8943C212.657 20.6301 212.203 20.4521 211.743 20.3602C211.295 20.2568 210.859 20.2051 210.434 20.2051C209.837 20.2051 209.4 20.2855 209.125 20.4463C208.849 20.6071 208.711 20.8139 208.711 21.0666C208.711 21.2963 208.809 21.4686 209.004 21.5834C209.211 21.6983 209.481 21.7902 209.814 21.8591C210.147 21.928 210.509 21.9912 210.899 22.0486C211.301 22.0946 211.703 22.1692 212.105 22.2726C212.507 22.376 212.869 22.5253 213.191 22.7205C213.524 22.9043 213.794 23.1628 214 23.4958C214.207 23.8175 214.31 24.2424 214.31 24.7708C214.31 25.3451 214.138 25.8562 213.794 26.3042C213.449 26.7406 212.949 27.0852 212.295 27.3379C211.651 27.5906 210.865 27.7169 209.934 27.7169ZM220.379 27.7169C219.392 27.7169 218.513 27.5102 217.743 27.0967C216.985 26.6832 216.382 26.1204 215.934 25.4083C215.498 24.6846 215.28 23.8634 215.28 22.9445C215.28 22.0142 215.498 21.1929 215.934 20.4808C216.382 19.7572 216.985 19.1944 217.743 18.7924C218.513 18.3789 219.392 18.1721 220.379 18.1721C221.356 18.1721 222.229 18.3789 222.998 18.7924C223.768 19.1944 224.371 19.7514 224.807 20.4636C225.244 21.1757 225.462 22.0027 225.462 22.9445C225.462 23.8634 225.244 24.6846 224.807 25.4083C224.371 26.1204 223.768 26.6832 222.998 27.0967C222.229 27.5102 221.356 27.7169 220.379 27.7169ZM220.379 25.5116C220.827 25.5116 221.229 25.4083 221.585 25.2015C221.941 24.9948 222.223 24.7019 222.43 24.3228C222.636 23.9323 222.74 23.4729 222.74 22.9445C222.74 22.4047 222.636 21.9452 222.43 21.5662C222.223 21.1872 221.941 20.8943 221.585 20.6875C221.229 20.4808 220.827 20.3774 220.379 20.3774C219.931 20.3774 219.529 20.4808 219.173 20.6875C218.817 20.8943 218.53 21.1872 218.312 21.5662C218.105 21.9452 218.002 22.4047 218.002 22.9445C218.002 23.4729 218.105 23.9323 218.312 24.3228C218.53 24.7019 218.817 24.9948 219.173 25.2015C219.529 25.4083 219.931 25.5116 220.379 25.5116ZM227.258 27.5791V18.3099H229.826V20.9287L229.464 20.1707C229.739 19.516 230.182 19.0221 230.79 18.689C231.399 18.3444 232.14 18.1721 233.013 18.1721V20.6531C232.898 20.6416 232.795 20.6358 232.703 20.6358C232.611 20.6244 232.513 20.6186 232.41 20.6186C231.675 20.6186 231.077 20.8311 230.618 21.2561C230.17 21.6696 229.946 22.3185 229.946 23.203V27.5791H227.258ZM236.102 31.0593C235.62 31.0593 235.143 30.9847 234.672 30.8354C234.201 30.686 233.817 30.4793 233.518 30.2151L234.5 28.3027C234.707 28.4865 234.942 28.6301 235.206 28.7334C235.482 28.8368 235.752 28.8885 236.016 28.8885C236.395 28.8885 236.694 28.7966 236.912 28.6128C237.142 28.4405 237.348 28.1477 237.532 27.7342L238.015 26.5971L238.221 26.3042L241.547 18.3099H244.131L239.944 28.1477C239.646 28.8942 239.301 29.48 238.911 29.905C238.532 30.33 238.107 30.6286 237.636 30.8009C237.176 30.9732 236.665 31.0593 236.102 31.0593ZM237.687 27.9409L233.552 18.3099H236.326L239.531 26.063L237.687 27.9409ZM254.259 27.7858C253.294 27.7858 252.37 27.6595 251.485 27.4068C250.601 27.1426 249.889 26.8038 249.349 26.3903L250.296 24.2884C250.813 24.6559 251.422 24.9603 252.123 25.2015C252.835 25.4312 253.553 25.5461 254.276 25.5461C254.828 25.5461 255.27 25.4944 255.603 25.391C255.948 25.2762 256.2 25.1211 256.361 24.9258C256.522 24.7306 256.602 24.5066 256.602 24.2539C256.602 23.9323 256.476 23.6796 256.223 23.4958C255.97 23.3006 255.637 23.1455 255.224 23.0307C254.81 22.9043 254.351 22.7895 253.846 22.6861C253.352 22.5712 252.852 22.4334 252.347 22.2726C251.853 22.1118 251.399 21.905 250.986 21.6524C250.572 21.3997 250.233 21.0666 249.969 20.6531C249.716 20.2396 249.59 19.7112 249.59 19.068C249.59 18.3789 249.774 17.7529 250.141 17.1901C250.52 16.6158 251.083 16.1621 251.83 15.829C252.588 15.4844 253.535 15.3121 254.673 15.3121C255.431 15.3121 256.177 15.404 256.912 15.5878C257.647 15.7601 258.296 16.0242 258.859 16.3803L257.998 18.4995C257.435 18.1779 256.872 17.9424 256.309 17.7931C255.747 17.6323 255.195 17.5519 254.655 17.5519C254.116 17.5519 253.673 17.615 253.329 17.7414C252.984 17.8677 252.737 18.0343 252.588 18.241C252.439 18.4363 252.364 18.666 252.364 18.9302C252.364 19.2403 252.49 19.493 252.743 19.6883C252.996 19.872 253.329 20.0213 253.742 20.1362C254.156 20.2511 254.609 20.3659 255.103 20.4808C255.609 20.5956 256.108 20.7277 256.602 20.8771C257.108 21.0264 257.567 21.2274 257.981 21.4801C258.394 21.7328 258.727 22.0658 258.98 22.4793C259.244 22.8928 259.376 23.4154 259.376 24.0472C259.376 24.7248 259.187 25.3451 258.808 25.9079C258.428 26.4707 257.86 26.9244 257.102 27.269C256.355 27.6136 255.408 27.7858 254.259 27.7858ZM265.694 27.7169C264.637 27.7169 263.707 27.5102 262.903 27.0967C262.11 26.6832 261.496 26.1204 261.059 25.4083C260.623 24.6846 260.405 23.8634 260.405 22.9445C260.405 22.0142 260.617 21.1929 261.042 20.4808C261.478 19.7572 262.07 19.1944 262.817 18.7924C263.563 18.3789 264.407 18.1721 265.349 18.1721C266.257 18.1721 267.072 18.3674 267.796 18.7579C268.531 19.1369 269.111 19.6883 269.536 20.4119C269.961 21.124 270.173 21.9797 270.173 22.979C270.173 23.0824 270.168 23.203 270.156 23.3408C270.145 23.4671 270.133 23.5877 270.122 23.7026H262.593V22.1348H268.709L267.675 22.5999C267.675 22.1175 267.578 21.6983 267.382 21.3422C267.187 20.9862 266.917 20.7105 266.573 20.5152C266.228 20.3085 265.826 20.2051 265.366 20.2051C264.907 20.2051 264.499 20.3085 264.143 20.5152C263.799 20.7105 263.529 20.9919 263.333 21.3595C263.138 21.7155 263.041 22.1405 263.041 22.6344V23.0479C263.041 23.5533 263.15 24.0012 263.368 24.3918C263.598 24.7708 263.914 25.0637 264.316 25.2704C264.729 25.4657 265.211 25.5633 265.763 25.5633C266.257 25.5633 266.687 25.4887 267.055 25.3393C267.434 25.19 267.779 24.966 268.089 24.6674L269.519 26.218C269.094 26.7004 268.56 27.0737 267.916 27.3379C267.273 27.5906 266.532 27.7169 265.694 27.7169ZM271.963 27.5791V18.3099H274.53V20.9287L274.168 20.1707C274.444 19.516 274.886 19.0221 275.495 18.689C276.103 18.3444 276.844 18.1721 277.717 18.1721V20.6531C277.602 20.6416 277.499 20.6358 277.407 20.6358C277.315 20.6244 277.218 20.6186 277.114 20.6186C276.379 20.6186 275.782 20.8311 275.322 21.2561C274.874 21.6696 274.65 22.3185 274.65 23.203V27.5791H271.963ZM282.15 27.5791L278.257 18.3099H281.031L284.27 26.2869H282.891L286.251 18.3099H288.835L284.924 27.5791H282.15ZM289.932 27.5791V18.3099H292.62V27.5791H289.932ZM291.276 17.0178C290.782 17.0178 290.38 16.8742 290.07 16.5871C289.76 16.2999 289.605 15.9438 289.605 15.5189C289.605 15.0939 289.76 14.7378 290.07 14.4507C290.38 14.1635 290.782 14.0199 291.276 14.0199C291.77 14.0199 292.172 14.1578 292.482 14.4334C292.792 14.6976 292.947 15.0422 292.947 15.4672C292.947 15.9151 292.792 16.2884 292.482 16.5871C292.183 16.8742 291.781 17.0178 291.276 17.0178ZM299.594 27.7169C298.594 27.7169 297.704 27.5159 296.923 27.1139C296.142 26.7004 295.528 26.1319 295.08 25.4083C294.643 24.6846 294.425 23.8634 294.425 22.9445C294.425 22.0142 294.643 21.1929 295.08 20.4808C295.528 19.7572 296.142 19.1944 296.923 18.7924C297.704 18.3789 298.594 18.1721 299.594 18.1721C300.57 18.1721 301.42 18.3789 302.143 18.7924C302.867 19.1944 303.401 19.7744 303.746 20.5325L301.661 21.6524C301.42 21.2159 301.115 20.8943 300.748 20.6875C300.392 20.4808 300.001 20.3774 299.576 20.3774C299.117 20.3774 298.703 20.4808 298.336 20.6875C297.968 20.8943 297.675 21.1872 297.457 21.5662C297.25 21.9452 297.147 22.4047 297.147 22.9445C297.147 23.4844 297.25 23.9438 297.457 24.3228C297.675 24.7019 297.968 24.9948 298.336 25.2015C298.703 25.4083 299.117 25.5116 299.576 25.5116C300.001 25.5116 300.392 25.414 300.748 25.2187C301.115 25.012 301.42 24.6846 301.661 24.2367L303.746 25.3738C303.401 26.1204 302.867 26.7004 302.143 27.1139C301.42 27.5159 300.57 27.7169 299.594 27.7169ZM309.776 27.7169C308.719 27.7169 307.789 27.5102 306.985 27.0967C306.192 26.6832 305.578 26.1204 305.141 25.4083C304.705 24.6846 304.486 23.8634 304.486 22.9445C304.486 22.0142 304.699 21.1929 305.124 20.4808C305.56 19.7572 306.152 19.1944 306.898 18.7924C307.645 18.3789 308.489 18.1721 309.431 18.1721C310.338 18.1721 311.154 18.3674 311.878 18.7579C312.613 19.1369 313.193 19.6883 313.618 20.4119C314.043 21.124 314.255 21.9797 314.255 22.979C314.255 23.0824 314.249 23.203 314.238 23.3408C314.226 23.4671 314.215 23.5877 314.203 23.7026H306.674V22.1348H312.791L311.757 22.5999C311.757 22.1175 311.659 21.6983 311.464 21.3422C311.269 20.9862 310.999 20.7105 310.654 20.5152C310.31 20.3085 309.908 20.2051 309.448 20.2051C308.989 20.2051 308.581 20.3085 308.225 20.5152C307.88 20.7105 307.611 20.9919 307.415 21.3595C307.22 21.7155 307.122 22.1405 307.122 22.6344V23.0479C307.122 23.5533 307.231 24.0012 307.45 24.3918C307.679 24.7708 307.995 25.0637 308.397 25.2704C308.811 25.4657 309.293 25.5633 309.845 25.5633C310.338 25.5633 310.769 25.4887 311.137 25.3393C311.516 25.19 311.86 24.966 312.17 24.6674L313.6 26.218C313.175 26.7004 312.641 27.0737 311.998 27.3379C311.355 27.5906 310.614 27.7169 309.776 27.7169ZM319.163 27.7169C318.37 27.7169 317.607 27.625 316.872 27.4413C316.148 27.246 315.574 27.0048 315.149 26.7177L316.045 24.788C316.47 25.0522 316.969 25.2704 317.543 25.4427C318.129 25.6035 318.704 25.6839 319.266 25.6839C319.887 25.6839 320.323 25.6093 320.576 25.4599C320.84 25.3106 320.972 25.1039 320.972 24.8397C320.972 24.6215 320.869 24.4607 320.662 24.3573C320.467 24.2424 320.202 24.1563 319.869 24.0989C319.536 24.0414 319.169 23.984 318.767 23.9266C318.376 23.8691 317.98 23.7945 317.578 23.7026C317.176 23.5992 316.808 23.4499 316.475 23.2546C316.142 23.0594 315.872 22.7952 315.666 22.4621C315.47 22.129 315.373 21.6983 315.373 21.1699C315.373 20.5842 315.539 20.0673 315.872 19.6193C316.217 19.1714 316.711 18.8211 317.354 18.5684C317.997 18.3042 318.767 18.1721 319.663 18.1721C320.294 18.1721 320.938 18.241 321.592 18.3789C322.247 18.5167 322.793 18.7177 323.229 18.9819L322.333 20.8943C321.885 20.6301 321.431 20.4521 320.972 20.3602C320.524 20.2568 320.088 20.2051 319.663 20.2051C319.065 20.2051 318.629 20.2855 318.353 20.4463C318.078 20.6071 317.94 20.8139 317.94 21.0666C317.94 21.2963 318.037 21.4686 318.233 21.5834C318.439 21.6983 318.709 21.7902 319.042 21.8591C319.375 21.928 319.737 21.9912 320.128 22.0486C320.53 22.0946 320.932 22.1692 321.334 22.2726C321.736 22.376 322.098 22.5253 322.419 22.7205C322.752 22.9043 323.022 23.1628 323.229 23.4958C323.436 23.8175 323.539 24.2424 323.539 24.7708C323.539 25.3451 323.367 25.8562 323.022 26.3042C322.678 26.7406 322.178 27.0852 321.523 27.3379C320.88 27.5906 320.093 27.7169 319.163 27.7169Z" fill="#04001D"/>
<path d="M166.231 47.1455V37.278H168.514V45.2848H173.462V47.1455H166.231ZM179.304 47.1455V45.6654L179.163 45.3412V42.691C179.163 42.2212 179.017 41.8547 178.726 41.5915C178.444 41.3284 178.007 41.1968 177.415 41.1968C177.011 41.1968 176.611 41.2626 176.216 41.3942C175.831 41.5164 175.502 41.6855 175.23 41.9017L174.44 40.3651C174.854 40.0738 175.352 39.8483 175.934 39.6885C176.517 39.5288 177.109 39.4489 177.711 39.4489C178.867 39.4489 179.764 39.7214 180.403 40.2665C181.042 40.8115 181.362 41.662 181.362 42.8179V47.1455H179.304ZM176.992 47.2583C176.4 47.2583 175.892 47.1596 175.469 46.9623C175.046 46.7555 174.722 46.4783 174.497 46.1306C174.271 45.7829 174.158 45.3929 174.158 44.9606C174.158 44.5095 174.266 44.1148 174.483 43.7765C174.708 43.4382 175.061 43.175 175.54 42.9871C176.019 42.7897 176.644 42.691 177.415 42.691H179.43V43.9738H177.654C177.137 43.9738 176.78 44.0584 176.583 44.2276C176.395 44.3967 176.301 44.6082 176.301 44.8619C176.301 45.1438 176.409 45.3694 176.625 45.5385C176.851 45.6983 177.156 45.7782 177.541 45.7782C177.908 45.7782 178.237 45.6936 178.528 45.5244C178.82 45.3459 179.031 45.0874 179.163 44.7491L179.501 45.7641C179.341 46.2527 179.05 46.6239 178.627 46.8777C178.204 47.1314 177.659 47.2583 176.992 47.2583ZM186.453 47.2583C185.56 47.2583 184.865 47.0327 184.367 46.5817C183.869 46.1212 183.62 45.4398 183.62 44.5377V37.8842H185.819V44.5095C185.819 44.829 185.903 45.078 186.072 45.2566C186.242 45.4257 186.472 45.5103 186.763 45.5103C187.111 45.5103 187.407 45.4164 187.651 45.2284L188.243 46.779C188.018 46.9388 187.745 47.0609 187.426 47.1455C187.116 47.2207 186.791 47.2583 186.453 47.2583ZM182.45 41.4224V39.7308H187.708V41.4224H182.45ZM189.478 47.1455V39.5617H191.677V47.1455H189.478ZM190.577 38.5044C190.173 38.5044 189.844 38.387 189.59 38.152C189.337 37.9171 189.21 37.6257 189.21 37.278C189.21 36.9303 189.337 36.639 189.59 36.4041C189.844 36.1691 190.173 36.0517 190.577 36.0517C190.981 36.0517 191.31 36.1644 191.564 36.39C191.818 36.6061 191.945 36.888 191.945 37.2357C191.945 37.6023 191.818 37.9077 191.564 38.152C191.32 38.387 190.991 38.5044 190.577 38.5044ZM198.327 39.4489C198.929 39.4489 199.464 39.571 199.934 39.8154C200.413 40.0503 200.789 40.4168 201.062 40.9149C201.334 41.4036 201.471 42.0332 201.471 42.8038V47.1455H199.272V43.1421C199.272 42.5313 199.135 42.0802 198.863 41.7889C198.6 41.4976 198.224 41.3519 197.735 41.3519C197.387 41.3519 197.073 41.4271 196.791 41.5774C196.518 41.7184 196.302 41.9392 196.142 42.24C195.992 42.5407 195.917 42.926 195.917 43.3959V47.1455H193.718V39.5617H195.818V41.662L195.423 41.0277C195.696 40.5202 196.086 40.1302 196.593 39.8577C197.101 39.5851 197.679 39.4489 198.327 39.4489ZM206.314 47.1455L210.712 37.278H212.968L217.38 47.1455H214.984L211.375 38.4339H212.277L208.654 47.1455H206.314ZM208.513 45.031L209.119 43.2972H214.194L214.814 45.031H208.513ZM227.961 39.4489C228.562 39.4489 229.093 39.571 229.554 39.8154C230.024 40.0503 230.39 40.4168 230.653 40.9149C230.926 41.4036 231.062 42.0332 231.062 42.8038V47.1455H228.863V43.1421C228.863 42.5313 228.736 42.0802 228.483 41.7889C228.229 41.4976 227.872 41.3519 227.411 41.3519C227.092 41.3519 226.805 41.4271 226.551 41.5774C226.298 41.7184 226.1 41.9345 225.959 42.2259C225.818 42.5172 225.748 42.8884 225.748 43.3395V47.1455H223.549V43.1421C223.549 42.5313 223.422 42.0802 223.168 41.7889C222.924 41.4976 222.572 41.3519 222.111 41.3519C221.792 41.3519 221.505 41.4271 221.251 41.5774C220.997 41.7184 220.8 41.9345 220.659 42.2259C220.518 42.5172 220.448 42.8884 220.448 43.3395V47.1455H218.249V39.5617H220.349V41.6338L219.954 41.0277C220.217 40.5108 220.589 40.1208 221.068 39.8577C221.557 39.5851 222.111 39.4489 222.731 39.4489C223.427 39.4489 224.033 39.6274 224.55 39.9845C225.076 40.3323 225.424 40.8679 225.593 41.5915L224.818 41.3801C225.071 40.788 225.475 40.3182 226.03 39.9704C226.594 39.6227 227.237 39.4489 227.961 39.4489ZM236.852 47.2583C235.988 47.2583 235.226 47.0891 234.569 46.7508C233.92 46.4125 233.417 45.952 233.06 45.3694C232.703 44.7773 232.525 44.1054 232.525 43.3536C232.525 42.5924 232.698 41.9204 233.046 41.3378C233.403 40.7457 233.887 40.2853 234.498 39.9564C235.109 39.618 235.8 39.4489 236.57 39.4489C237.313 39.4489 237.98 39.6086 238.572 39.9282C239.173 40.2383 239.648 40.6894 239.996 41.2814C240.343 41.8641 240.517 42.5642 240.517 43.3818C240.517 43.4664 240.512 43.565 240.503 43.6778C240.494 43.7812 240.484 43.8798 240.475 43.9738H234.315V42.691H239.319L238.473 43.0717C238.473 42.677 238.393 42.3339 238.234 42.0426C238.074 41.7513 237.853 41.5257 237.571 41.366C237.289 41.1968 236.96 41.1123 236.584 41.1123C236.208 41.1123 235.875 41.1968 235.583 41.366C235.302 41.5257 235.081 41.756 234.921 42.0567C234.761 42.348 234.681 42.6957 234.681 43.0998V43.4382C234.681 43.8517 234.771 44.2182 234.949 44.5377C235.137 44.8478 235.395 45.0874 235.724 45.2566C236.063 45.4164 236.457 45.4962 236.909 45.4962C237.313 45.4962 237.665 45.4351 237.966 45.313C238.276 45.1908 238.558 45.0076 238.812 44.7632L239.982 46.0319C239.634 46.4266 239.197 46.732 238.671 46.9482C238.144 47.1549 237.538 47.2583 236.852 47.2583ZM241.981 47.1455V39.5617H244.082V41.7043L243.786 41.0841C244.011 40.5484 244.373 40.1443 244.871 39.8718C245.369 39.5898 245.975 39.4489 246.689 39.4489V41.4788C246.595 41.4694 246.511 41.4647 246.436 41.4647C246.361 41.4553 246.281 41.4506 246.196 41.4506C245.595 41.4506 245.106 41.6244 244.73 41.9721C244.364 42.3104 244.18 42.8414 244.18 43.565V47.1455H241.981ZM248.011 47.1455V39.5617H250.21V47.1455H248.011ZM249.11 38.5044C248.706 38.5044 248.377 38.387 248.123 38.152C247.87 37.9171 247.743 37.6257 247.743 37.278C247.743 36.9303 247.87 36.639 248.123 36.4041C248.377 36.1691 248.706 36.0517 249.11 36.0517C249.514 36.0517 249.843 36.1644 250.097 36.39C250.351 36.6061 250.478 36.888 250.478 37.2357C250.478 37.6023 250.351 37.9077 250.097 38.152C249.853 38.387 249.524 38.5044 249.11 38.5044ZM255.916 47.2583C255.098 47.2583 254.37 47.0938 253.731 46.7649C253.092 46.4266 252.589 45.9614 252.222 45.3694C251.865 44.7773 251.687 44.1054 251.687 43.3536C251.687 42.5924 251.865 41.9204 252.222 41.3378C252.589 40.7457 253.092 40.2853 253.731 39.9564C254.37 39.618 255.098 39.4489 255.916 39.4489C256.715 39.4489 257.41 39.618 258.002 39.9564C258.594 40.2853 259.031 40.7598 259.313 41.3801L257.607 42.2964C257.41 41.9392 257.161 41.6761 256.86 41.507C256.569 41.3378 256.249 41.2532 255.902 41.2532C255.526 41.2532 255.187 41.3378 254.887 41.507C254.586 41.6761 254.346 41.9157 254.168 42.2259C253.999 42.536 253.914 42.9119 253.914 43.3536C253.914 43.7953 253.999 44.1712 254.168 44.4813C254.346 44.7914 254.586 45.031 254.887 45.2002C255.187 45.3694 255.526 45.4539 255.902 45.4539C256.249 45.4539 256.569 45.3741 256.86 45.2143C257.161 45.0451 257.41 44.7773 257.607 44.4108L259.313 45.3412C259.031 45.952 258.594 46.4266 258.002 46.7649C257.41 47.0938 256.715 47.2583 255.916 47.2583ZM265.231 47.1455V45.6654L265.09 45.3412V42.691C265.09 42.2212 264.944 41.8547 264.653 41.5915C264.371 41.3284 263.934 41.1968 263.342 41.1968C262.938 41.1968 262.538 41.2626 262.144 41.3942C261.758 41.5164 261.43 41.6855 261.157 41.9017L260.368 40.3651C260.781 40.0738 261.279 39.8483 261.862 39.6885C262.445 39.5288 263.037 39.4489 263.638 39.4489C264.794 39.4489 265.691 39.7214 266.33 40.2665C266.969 40.8115 267.289 41.662 267.289 42.8179V47.1455H265.231ZM262.919 47.2583C262.327 47.2583 261.82 47.1596 261.397 46.9623C260.974 46.7555 260.65 46.4783 260.424 46.1306C260.198 45.7829 260.086 45.3929 260.086 44.9606C260.086 44.5095 260.194 44.1148 260.41 43.7765C260.635 43.4382 260.988 43.175 261.467 42.9871C261.946 42.7897 262.571 42.691 263.342 42.691H265.358V43.9738H263.582C263.065 43.9738 262.708 44.0584 262.51 44.2276C262.322 44.3967 262.228 44.6082 262.228 44.8619C262.228 45.1438 262.336 45.3694 262.553 45.5385C262.778 45.6983 263.084 45.7782 263.469 45.7782C263.835 45.7782 264.164 45.6936 264.456 45.5244C264.747 45.3459 264.958 45.0874 265.09 44.7491L265.428 45.7641C265.268 46.2527 264.977 46.6239 264.554 46.8777C264.131 47.1314 263.586 47.2583 262.919 47.2583Z" fill="#04001D"/>
<defs>
<clipPath id="clip0_196_12890">
<rect width="140" height="54.4052" fill="white" transform="translate(0 3.15967)"/>
</clipPath>
</defs>
</svg>
