<svg width="73" height="90" viewBox="0 0 73 90" fill="none" xmlns="http://www.w3.org/2000/svg">
<path fill-rule="evenodd" clip-rule="evenodd" d="M36.3725 24.57C29.6525 41.08 19.9525 59.86 6.85254 72.73C7.11254 73.04 9.17254 75.72 12.5825 78.92C13.3525 79.65 14.2025 80.4 15.1125 81.16C25.4625 66.23 30.8425 43.67 36.3825 25.8V24.57H36.3725Z" fill="#00D9F5"/>
<path fill-rule="evenodd" clip-rule="evenodd" d="M36.3725 25.79C30.8425 43.67 25.4525 66.22 15.1025 81.16C18.8425 84.5 21.4625 86.31 27.1925 89.35L27.2425 89.38L36.3625 32.38L45.4825 89.38L45.5325 89.35C51.2625 86.31 53.8925 84.5 57.6225 81.16C47.3025 66.22 41.9125 43.67 36.3725 25.79Z" fill="#00A2FF"/>
<path fill-rule="evenodd" clip-rule="evenodd" d="M36.3726 24.57C29.1226 36.86 20.2326 52.22 8.89258 61.61C10.1126 65.33 11.4526 67.15 13.3126 69.59C22.6926 57.3 29.6226 39.81 36.2126 25.79L36.3726 24.57Z" fill="#29F5F5"/>
<path fill-rule="evenodd" clip-rule="evenodd" d="M36.3726 24.57C43.6326 36.86 52.5126 52.22 63.8526 61.61C62.6326 65.33 61.2926 67.15 59.4326 69.59C50.0526 57.3 43.1226 39.81 36.5326 25.79L36.3726 24.57Z" fill="#29F5F5"/>
<path d="M71.8025 44.33C71.6725 43.86 71.5425 43.39 71.3925 42.92C69.7925 37.84 66.8825 32.78 63.2825 27.92C62.4025 26.73 61.4725 25.55 60.5225 24.39C57.5825 20.82 54.3325 17.4 51.0425 14.2L36.8925 0.5L36.5425 0.16L36.3725 0L36.2025 0.17L35.8525 0.5L21.7225 14.21C18.4325 17.4 15.1825 20.83 12.2425 24.4C11.2825 25.56 10.3625 26.74 9.48252 27.93C5.88252 32.78 2.97252 37.85 1.37252 42.93C1.22252 43.4 1.09252 43.87 0.962524 44.34C0.992524 44.28 15.0525 20.68 36.3825 8.62C57.7125 20.68 71.7625 44.28 71.8025 44.33Z" fill="#00A2FF"/>
<path fill-rule="evenodd" clip-rule="evenodd" d="M10.8026 77.11C5.68256 72.17 2.60255 66.85 1.10255 61.34C-0.397445 55.8 -0.287445 50.07 0.952555 44.33C0.982555 44.27 15.0426 20.67 36.3726 8.60999C35.3126 9.70999 34.1626 10.88 32.9626 12.09C29.3026 15.82 25.2026 19.99 21.3826 24.39C15.8826 30.73 10.9526 37.57 8.66255 44.33C5.81255 54.76 8.21255 64.59 14.9426 71.4C13.6026 73.37 12.2226 75.28 10.8026 77.11ZM61.9526 77.11C67.0726 72.17 70.1526 66.85 71.6526 61.34C73.1526 55.8 73.0426 50.07 71.8026 44.33C71.7726 44.27 57.7126 20.67 36.3826 8.60999C37.4426 9.70999 38.5926 10.88 39.7926 12.09C43.4526 15.82 47.5526 19.99 51.3726 24.39C56.8726 30.73 61.8026 37.57 64.0926 44.33C66.9526 54.76 64.5526 64.59 57.8226 71.39C59.1526 73.37 60.5326 75.28 61.9526 77.11Z" fill="#1CEDED"/>
<path fill-rule="evenodd" clip-rule="evenodd" d="M36.3725 24.57C29.6525 41.08 19.9525 59.86 6.85254 72.73C7.11254 73.04 9.17254 75.72 12.5825 78.92C13.3525 79.65 14.2025 80.4 15.1125 81.16C25.4625 66.23 30.8425 43.67 36.3825 25.8V24.57H36.3725Z" fill="#00D9F5"/>
<path fill-rule="evenodd" clip-rule="evenodd" d="M36.3726 24.57C43.0926 41.08 52.8026 59.86 65.9026 72.73C65.6426 73.04 63.5826 75.72 60.1726 78.92C59.4026 79.65 58.5526 80.4 57.6426 81.16C47.3026 66.22 41.9126 43.67 36.3726 25.79V24.57Z" fill="#00D9F5"/>
</svg>
