<svg width="21" height="17" viewBox="0 0 21 17" fill="none" xmlns="http://www.w3.org/2000/svg">
<path fill-rule="evenodd" clip-rule="evenodd" d="M15.1283 8.1376C11.4383 6.6376 7.23828 4.4676 4.36828 1.5376C4.29828 1.5976 3.69828 2.0576 2.98828 2.8176C2.82828 2.9876 2.65828 3.1776 2.48828 3.3776C5.82828 5.6876 10.8683 6.8976 14.8683 8.1276H15.1283V8.1376Z" fill="#04001D"/>
<path fill-rule="evenodd" clip-rule="evenodd" d="M14.8489 8.1377C10.8489 6.8977 5.80891 5.6977 2.46891 3.3877C1.71891 4.2177 1.3189 4.8077 0.638905 6.0877L0.628906 6.0977L13.3689 8.1377L0.628906 10.1777L0.638905 10.1877C1.3189 11.4677 1.71891 12.0577 2.46891 12.8877C5.81891 10.5777 10.8589 9.3777 14.8489 8.1377Z" fill="#04001D"/>
<path fill-rule="evenodd" clip-rule="evenodd" d="M4.01953 2.10742C4.04953 2.13742 4.07953 2.15742 4.10953 2.18742C4.07953 2.15742 4.04953 2.12742 4.01953 2.10742Z" fill="#04001D"/>
<path fill-rule="evenodd" clip-rule="evenodd" d="M15.1284 8.13756C12.3784 6.51756 8.94836 4.52756 6.84836 1.99756C6.01836 2.26756 5.60836 2.56756 5.06836 2.98756C7.81836 5.08756 11.7284 6.63756 14.8584 8.10756L15.1284 8.13756Z" fill="#04001D"/>
<path fill-rule="evenodd" clip-rule="evenodd" d="M15.1284 8.1377C12.3784 9.7577 8.94836 11.7477 6.84836 14.2777C6.01836 14.0077 5.60836 13.7077 5.06836 13.2877C7.81836 11.1877 11.7284 9.6377 14.8584 8.1677L15.1284 8.1377Z" fill="#04001D"/>
<path d="M10.709 16.0573C10.809 16.0273 10.919 15.9973 11.019 15.9673C12.159 15.6073 13.289 14.9573 14.369 14.1573C14.639 13.9573 14.899 13.7573 15.159 13.5373C15.959 12.8773 16.719 12.1573 17.439 11.4173L20.499 8.25729L20.579 8.17729L20.619 8.13729L20.579 8.09729L20.499 8.01729L17.439 4.85729C16.729 4.11729 15.959 3.39729 15.159 2.73729C14.899 2.52729 14.639 2.31729 14.369 2.11729C13.289 1.31729 12.149 0.667285 11.019 0.307285C10.919 0.277285 10.809 0.247285 10.709 0.217285C10.719 0.227285 15.999 3.36729 18.689 8.13729C15.999 12.9073 10.719 16.0473 10.709 16.0573Z" fill="#04001D"/>
<path fill-rule="evenodd" clip-rule="evenodd" d="M3.37891 2.4175C4.47891 1.2675 5.66891 0.5875 6.90891 0.2475C8.1489 -0.0925 9.4289 -0.0625 10.7089 0.2175C10.7189 0.2275 15.9989 3.3675 18.6889 8.1375C18.4389 7.8975 18.1789 7.6475 17.9089 7.3775C17.0789 6.5575 16.1489 5.6475 15.1589 4.7875C13.7389 3.5575 12.2089 2.4575 10.6989 1.9475C8.36891 1.3075 6.16891 1.8475 4.64891 3.3475C4.21891 3.0475 3.78891 2.7375 3.37891 2.4175ZM3.37891 13.8575C4.47891 15.0075 5.66891 15.6875 6.90891 16.0275C8.1489 16.3675 9.4289 16.3375 10.7089 16.0575C10.7189 16.0475 15.9989 12.9075 18.6889 8.1375C18.4389 8.3775 18.1789 8.6275 17.9089 8.8975C17.0789 9.7175 16.1489 10.6275 15.1589 11.4875C13.7389 12.7175 12.2089 13.8175 10.6989 14.3275C8.36891 14.9675 6.16891 14.4275 4.64891 12.9275C4.21891 13.2275 3.78891 13.5375 3.37891 13.8575Z" fill="#04001D"/>
<path fill-rule="evenodd" clip-rule="evenodd" d="M15.1283 8.1376C11.4383 6.6376 7.23828 4.4676 4.36828 1.5376C4.29828 1.5976 3.69828 2.0576 2.98828 2.8176C2.82828 2.9876 2.65828 3.1776 2.48828 3.3776C5.82828 5.6876 10.8683 6.8976 14.8683 8.1276H15.1283V8.1376Z" fill="#04001D"/>
<path fill-rule="evenodd" clip-rule="evenodd" d="M15.1283 8.1377C11.4383 9.6377 7.23828 11.8077 4.36828 14.7377C4.29828 14.6777 3.69828 14.2177 2.98828 13.4577C2.82828 13.2877 2.65828 13.0977 2.48828 12.8977C5.82828 10.5877 10.8683 9.3777 14.8683 8.1477H15.1283V8.1377Z" fill="#04001D"/>
</svg>
