<svg width="21" height="17" viewBox="0 0 21 17" fill="none" xmlns="http://www.w3.org/2000/svg">
<path fill-rule="evenodd" clip-rule="evenodd" d="M15.13 8.12979C11.44 6.62979 7.23999 4.45979 4.36999 1.52979C4.29999 1.58979 3.69999 2.04979 2.98999 2.80979C2.82999 2.97979 2.65999 3.16979 2.48999 3.36979C5.82999 5.67978 10.87 6.88979 14.87 8.11979H15.13V8.12979Z" fill="white"/>
<path fill-rule="evenodd" clip-rule="evenodd" d="M14.8499 8.12988C10.8499 6.88988 5.80988 5.68988 2.46988 3.37988C1.71988 4.20988 1.31988 4.79988 0.639881 6.07988L0.629883 6.08988L13.3699 8.12988L0.629883 10.1699L0.639881 10.1799C1.31988 11.4599 1.71988 12.0499 2.46988 12.8799C5.81988 10.5699 10.8599 9.36988 14.8499 8.12988Z" fill="white"/>
<path fill-rule="evenodd" clip-rule="evenodd" d="M4.01978 2.09961C4.04978 2.12961 4.07978 2.14961 4.10978 2.17961C4.07978 2.14961 4.04978 2.11961 4.01978 2.09961Z" fill="white"/>
<path fill-rule="evenodd" clip-rule="evenodd" d="M15.1298 8.12975C12.3798 6.50975 8.94982 4.51975 6.84982 1.98975C6.01982 2.25975 5.60982 2.55975 5.06982 2.97975C7.81982 5.07975 11.7298 6.62975 14.8598 8.09975L15.1298 8.12975Z" fill="white"/>
<path fill-rule="evenodd" clip-rule="evenodd" d="M15.1298 8.12988C12.3798 9.74988 8.94982 11.7399 6.84982 14.2699C6.01982 13.9999 5.60982 13.6999 5.06982 13.2799C7.81982 11.1799 11.7298 9.62988 14.8598 8.15988L15.1298 8.12988Z" fill="white"/>
<path d="M10.71 16.0495C10.81 16.0195 10.92 15.9895 11.02 15.9595C12.16 15.5995 13.29 14.9495 14.37 14.1495C14.64 13.9495 14.9 13.7495 15.16 13.5295C15.96 12.8695 16.72 12.1495 17.44 11.4095L20.5 8.24947L20.58 8.16947L20.62 8.12947L20.58 8.08947L20.5 8.00947L17.44 4.84947C16.73 4.10947 15.96 3.38947 15.16 2.72947C14.9 2.51947 14.64 2.30947 14.37 2.10947C13.29 1.30947 12.15 0.659473 11.02 0.299473C10.92 0.269473 10.81 0.239473 10.71 0.209473C10.72 0.219473 16 3.35947 18.69 8.12947C16 12.8995 10.72 16.0395 10.71 16.0495Z" fill="white"/>
<path fill-rule="evenodd" clip-rule="evenodd" d="M3.37988 2.40969C4.47988 1.25969 5.66988 0.579687 6.90988 0.239688C8.14988 -0.100313 9.42988 -0.0703125 10.7099 0.209688C10.7199 0.219688 15.9999 3.35969 18.6899 8.12969C18.4399 7.88969 18.1799 7.63969 17.9099 7.36969C17.0799 6.54969 16.1499 5.63969 15.1599 4.77969C13.7399 3.54969 12.2099 2.44969 10.6999 1.93969C8.36988 1.29969 6.16988 1.83969 4.64988 3.33969C4.21988 3.03969 3.78988 2.72969 3.37988 2.40969ZM3.37988 13.8497C4.47988 14.9997 5.66988 15.6797 6.90988 16.0197C8.14988 16.3597 9.42988 16.3297 10.7099 16.0497C10.7199 16.0397 15.9999 12.8997 18.6899 8.12969C18.4399 8.36969 18.1799 8.61969 17.9099 8.88969C17.0799 9.70969 16.1499 10.6197 15.1599 11.4797C13.7399 12.7097 12.2099 13.8097 10.6999 14.3197C8.36988 14.9597 6.16988 14.4197 4.64988 12.9197C4.21988 13.2197 3.78988 13.5297 3.37988 13.8497Z" fill="white"/>
<path fill-rule="evenodd" clip-rule="evenodd" d="M15.13 8.12979C11.44 6.62979 7.23999 4.45979 4.36999 1.52979C4.29999 1.58979 3.69999 2.04979 2.98999 2.80979C2.82999 2.97979 2.65999 3.16979 2.48999 3.36979C5.82999 5.67978 10.87 6.88979 14.87 8.11979H15.13V8.12979Z" fill="white"/>
<path fill-rule="evenodd" clip-rule="evenodd" d="M15.13 8.12988C11.44 9.62988 7.23999 11.7999 4.36999 14.7299C4.29999 14.6699 3.69999 14.2099 2.98999 13.4499C2.82999 13.2799 2.65999 13.0899 2.48999 12.8899C5.82999 10.5799 10.87 9.36988 14.87 8.13988H15.13V8.12988Z" fill="white"/>
</svg>
