<svg width="70" height="86" viewBox="0 0 70 86" fill="none" xmlns="http://www.w3.org/2000/svg">
<path fill-rule="evenodd" clip-rule="evenodd" d="M34.8138 23.52C28.3838 39.32 19.0938 57.3 6.55383 69.62C6.80383 69.91 8.77383 72.48 12.0338 75.55C12.7738 76.25 13.5838 76.96 14.4538 77.69C24.3538 63.4 29.5138 41.81 34.8138 24.69V23.52Z" fill="black"/>
<path fill-rule="evenodd" clip-rule="evenodd" d="M34.8139 24.69C29.5139 41.8 24.3539 63.39 14.4539 77.69C18.0339 80.89 20.5439 82.62 26.0239 85.53L26.0739 85.56L34.8139 31L43.5439 85.56L43.5939 85.53C49.0739 82.62 51.5939 80.89 55.1639 77.69C45.2739 63.39 40.1139 41.81 34.8139 24.69Z" fill="black"/>
<path fill-rule="evenodd" clip-rule="evenodd" d="M34.8138 23.52C27.8638 35.29 19.3538 49.99 8.50385 58.98C9.66385 62.54 10.9538 64.29 12.7338 66.62C21.7138 54.86 28.3438 38.11 34.6538 24.69L34.8138 23.52Z" fill="black"/>
<path fill-rule="evenodd" clip-rule="evenodd" d="M34.8138 23.52C41.7638 35.28 50.2638 49.99 61.1238 58.98C59.9638 62.54 58.6738 64.29 56.8938 66.62C47.9138 54.86 41.2838 38.11 34.9738 24.69L34.8138 23.52Z" fill="black"/>
<path d="M68.7239 42.44C68.6039 41.99 68.4739 41.54 68.3339 41.09C66.8039 36.23 64.0139 31.38 60.5639 26.73C59.7239 25.59 58.8339 24.46 57.9239 23.35C55.1039 19.93 52.0039 16.65 48.8439 13.6L35.3139 0.48L34.9839 0.16L34.8139 0L34.6539 0.16L34.3239 0.48L20.7839 13.61C17.6339 16.67 14.5239 19.94 11.7039 23.36C10.7839 24.47 9.90387 25.6 9.06387 26.74C5.61387 31.39 2.83387 36.23 1.29387 41.1C1.15387 41.55 1.02387 42 0.90387 42.45C0.93387 42.38 14.3939 19.79 34.8139 8.25C55.2339 19.79 68.6939 42.38 68.7239 42.44Z" fill="black"/>
<path fill-rule="evenodd" clip-rule="evenodd" d="M10.3338 73.82C5.42384 69.09 2.48384 64 1.05384 58.72C-0.37616 53.42 -0.27616 47.93 0.90384 42.44C0.93384 42.38 14.3938 19.79 34.8138 8.25C33.7938 9.3 32.6938 10.42 31.5538 11.59C28.0438 15.16 24.1238 19.15 20.4738 23.37C15.2138 29.44 10.4838 35.99 8.29384 42.45C5.55384 52.43 7.85384 61.84 14.2938 68.35C13.0138 70.23 11.6938 72.06 10.3338 73.82ZM59.2938 73.82C64.2038 69.09 67.1438 64 68.5738 58.72C70.0038 53.42 69.9038 47.93 68.7238 42.44C68.6938 42.38 55.2338 19.79 34.8138 8.25C35.8338 9.3 36.9338 10.42 38.0738 11.59C41.5838 15.16 45.5038 19.15 49.1538 23.37C54.4138 29.44 59.1438 35.99 61.3338 42.45C64.0738 52.43 61.7738 61.84 55.3338 68.35C56.6138 70.23 57.9338 72.06 59.2938 73.82Z" fill="black"/>
<path fill-rule="evenodd" clip-rule="evenodd" d="M34.8138 23.52C28.3838 39.32 19.0938 57.3 6.55383 69.62C6.80383 69.91 8.77383 72.48 12.0338 75.55C12.7738 76.25 13.5838 76.96 14.4538 77.69C24.3538 63.4 29.5138 41.81 34.8138 24.69V23.52Z" fill="black"/>
<path fill-rule="evenodd" clip-rule="evenodd" d="M34.8138 23.52C41.2438 39.32 50.5338 57.3 63.0738 69.62C62.8238 69.91 60.8538 72.48 57.5938 75.55C56.8538 76.25 56.0438 76.96 55.1738 77.69C45.2738 63.4 40.1138 41.81 34.8138 24.69V23.52Z" fill="black"/>
</svg>
