<svg width="854" height="737" viewBox="0 0 854 737" fill="none" xmlns="http://www.w3.org/2000/svg">
<path d="M83.1247 246.608C141.406 202.348 202.365 198.533 223.122 222.356C245.886 248.471 225.316 313.49 182.336 343.619C131.716 379.093 66.6446 317.327 45.645 339.209C14.6029 371.553 92.186 555.95 191.706 555.828C281.117 555.718 337.954 406.708 342.727 393.777C398.847 241.758 309.921 154.129 361.467 79.5966C431.885 -22.231 720.049 -35.3715 818.94 119.283C904.548 253.168 798.602 435.095 735.162 511.733C646.191 619.194 529.971 653.489 408.868 689.217C243.836 737.91 98.6457 738.152 1 730.006" stroke="white" stroke-width="5" stroke-miterlimit="10"/>
</svg>
