<svg width="230" height="90" viewBox="0 0 230 90" fill="none" xmlns="http://www.w3.org/2000/svg">
<g clip-path="url(#clip0_64_540)">
<path fill-rule="evenodd" clip-rule="evenodd" d="M114.34 27.97V46.43H118.91V36.7C118.91 33.29 121.12 32.02 123.52 32.02C125.02 32.02 125.88 32.43 126.81 33.22L128.87 29.25C127.86 28.24 126.02 27.49 124.12 27.49C122.25 27.49 120.34 27.83 118.92 30.11L118.58 27.98H114.34V27.97ZM139.31 31.75C142.38 31.75 144.33 34.45 144.33 37.22C144.33 40.03 142.65 42.65 139.31 42.65C135.98 42.65 134.29 40.03 134.29 37.22C134.29 34.45 136.02 31.75 139.31 31.75ZM139.27 27.6C133.39 27.6 129.72 31.94 129.72 37.22C129.72 42.54 133.31 46.84 139.3 46.84C145.29 46.84 148.92 42.53 148.92 37.22C148.93 31.94 145.15 27.6 139.27 27.6ZM170.23 46.43V36.73C170.23 30.93 166.75 27.67 162.41 27.67C160.09 27.67 158.22 28.61 156.35 30.44L156.05 27.93H151.97V46.42H156.5V36.99C156.5 34.18 158.41 31.82 161.22 31.82C164.14 31.82 165.68 33.95 165.68 36.76V46.42H170.23V46.43ZM175.25 23.25V28H171.81V31.93H175.25V39.9C175.25 44.5 177.87 46.79 181.88 46.64C183.26 46.6 184.35 46.38 185.66 45.85L184.39 41.96C183.72 42.3 182.89 42.52 182.18 42.52C180.76 42.52 179.78 41.66 179.78 39.9V31.93H184.91V28H179.82V22.76L175.25 23.25ZM187.9 22.77C187.9 26.33 193.29 26.33 193.29 22.77C193.29 19.21 187.9 19.21 187.9 22.77ZM192.88 27.9V46.43H188.31V27.9H192.88ZM200.97 35.05C201.64 32.65 203.67 31.46 206.14 31.46C208.76 31.46 210.63 32.66 210.93 35.05H200.97ZM215.31 38.83C216.02 31.23 212.17 27.41 205.99 27.41C200 27.41 196.18 31.45 196.18 37.07C196.18 42.98 199.96 46.92 206.33 46.92C209.14 46.92 212.32 45.95 214.27 43.93L211.35 41.05C210.3 42.14 208.09 42.77 206.41 42.77C203.19 42.77 201.21 41.12 200.91 38.84H215.31V38.83ZM218.83 27.97V46.43H223.4V36.7C223.4 33.29 225.61 32.02 228 32.02H228.04H230V27.62C229.55 27.53 229.07 27.49 228.6 27.49C226.73 27.49 224.82 27.83 223.4 30.11L223.06 27.98H218.83V27.97ZM98.7099 61.46H95.5499L97.1299 57.83L98.7099 61.46ZM100.07 64.56H101.82L97.9999 56.05H96.2499L92.4299 64.57H94.1699L94.8999 62.97H99.3499L100.07 64.56ZM113.71 57.56H115.46C117.31 57.56 118.08 58.89 118.12 60.22C118.16 61.61 117.39 63.02 115.46 63.02H113.71V57.56ZM115.46 56.05C114.41 56.05 113.16 56.05 112.12 56.05V64.57C113.16 64.57 114.42 64.57 115.46 64.57C118.44 64.57 119.75 62.4 119.71 60.24C119.68 58.12 118.38 56.05 115.46 56.05ZM138.62 56.05H136.82L134.24 62.68L131.68 56.05H129.88L133.42 64.6H135.08L138.62 56.05ZM151.03 64.56V56.04H149.44V64.56H151.03ZM169.12 57.45C168.48 56.14 167.1 55.76 165.78 55.76C164.21 55.77 162.49 56.49 162.49 58.24C162.49 60.15 164.09 60.61 165.83 60.82C166.96 60.94 167.8 61.27 167.8 62.07C167.8 62.99 166.85 63.35 165.84 63.35C164.81 63.35 163.82 62.94 163.45 62L162.11 62.69C162.74 64.25 164.08 64.78 165.82 64.78C167.72 64.78 169.39 63.97 169.39 62.07C169.39 60.04 167.74 59.58 165.96 59.36C164.94 59.24 164.06 59.03 164.06 58.29C164.06 57.66 164.63 57.16 165.82 57.16C166.74 57.16 167.54 57.62 167.84 58.11L169.12 57.45ZM184.45 57.35C186.45 57.35 187.26 58.95 187.23 60.39C187.21 61.79 186.45 63.29 184.45 63.29C182.45 63.29 181.69 61.8 181.65 60.4C181.62 58.96 182.44 57.35 184.45 57.35ZM184.45 55.89C181.51 55.89 180.08 58.14 180.08 60.37C180.08 62.61 181.46 64.76 184.45 64.76C187.44 64.76 188.79 62.56 188.81 60.36C188.83 58.13 187.37 55.89 184.45 55.89ZM203.86 57.54C204.87 57.54 205.32 58.22 205.32 58.91C205.32 59.59 204.88 60.28 203.86 60.28H201.42V57.55H203.86V57.54ZM207.35 64.45L204.77 61.55C206.39 61.22 206.92 60.04 206.92 58.87C206.92 57.39 205.86 56.06 203.86 56.05C202.51 56.06 201.16 56.05 199.81 56.05V64.57H201.41V61.73H202.95L205.43 64.57H207.34V64.45H207.35ZM219.25 56.05H217.34V56.12L220.61 61.05V64.57H222.21V61.05L225.6 56.12V56.05H223.67L221.41 59.57L219.25 56.05ZM97.3799 46.43V36.73H110.52V32.16H97.3799V25.01H111.27V20.26H92.4399V46.43H97.3799Z" fill="#002898"/>
<path d="M132.46 82.91V76.86H131.33V79.41H128.35V76.86H127.21V82.91H128.35V80.47H131.33V82.91H132.46Z" fill="#008CFF"/>
<path d="M160.33 78.79H161.16L161.83 76.84H160.74L160.33 78.79Z" fill="#008CFF"/>
<path d="M142.96 76.86V80.33C142.96 81.37 142.42 82 141.48 82C140.54 82 139.91 81.42 139.91 80.33V76.86H138.78V80.33C138.78 82.16 140.02 83.04 141.47 83.04C142.99 83.04 144.09 82.12 144.09 80.33V76.86H142.96Z" fill="#008CFF"/>
<path d="M150.46 76.84V82.91H154.72V81.85H151.6V76.84H150.46Z" fill="#008CFF"/>
<path d="M183.98 82.91V76.86H182.85V79.41H179.87V76.86H178.73V82.91H179.87V80.47H182.85V82.91H183.98Z" fill="#008CFF"/>
<path d="M194.82 81.78H191.42V80.41H194.7V79.35H191.42V77.95H194.82V76.84H190.28C190.28 78.86 190.28 80.89 190.28 82.91H194.82V81.78Z" fill="#008CFF"/>
<path d="M172.32 81.36C171.92 81.76 171.32 81.97 170.8 81.97C169.3 81.97 168.72 80.92 168.71 79.92C168.7 78.91 169.33 77.82 170.8 77.82C171.33 77.82 171.86 78 172.26 78.39L173.02 77.65C172.4 77.04 171.62 76.72 170.8 76.72C168.61 76.72 167.58 78.33 167.59 79.91C167.6 81.49 168.55 83.03 170.8 83.03C171.67 83.03 172.48 82.74 173.1 82.13L172.32 81.36Z" fill="#008CFF"/>
<path fill-rule="evenodd" clip-rule="evenodd" d="M36.37 24.57C29.65 41.08 19.95 59.86 6.84998 72.73C7.10998 73.04 9.16998 75.72 12.58 78.92C13.35 79.65 14.2 80.4 15.11 81.16C25.46 66.23 30.84 43.67 36.38 25.8V24.57H36.37Z" fill="#00D9F5"/>
<path fill-rule="evenodd" clip-rule="evenodd" d="M36.37 25.79C30.84 43.67 25.45 66.22 15.1 81.16C18.84 84.5 21.46 86.31 27.19 89.35L27.24 89.38L36.36 32.38L45.48 89.38L45.53 89.35C51.26 86.31 53.89 84.5 57.62 81.16C47.3 66.22 41.91 43.67 36.37 25.79Z" fill="#00A2FF"/>
<path fill-rule="evenodd" clip-rule="evenodd" d="M36.37 24.57C29.12 36.86 20.23 52.22 8.89001 61.61C10.11 65.33 11.45 67.15 13.31 69.59C22.69 57.3 29.62 39.81 36.21 25.79L36.37 24.57Z" fill="#29F5F5"/>
<path fill-rule="evenodd" clip-rule="evenodd" d="M36.37 24.57C43.63 36.86 52.51 52.22 63.85 61.61C62.63 65.33 61.29 67.15 59.43 69.59C50.05 57.3 43.12 39.81 36.53 25.79L36.37 24.57Z" fill="#29F5F5"/>
<path d="M71.8 44.33C71.67 43.86 71.54 43.39 71.39 42.92C69.79 37.84 66.88 32.78 63.28 27.92C62.4 26.73 61.47 25.55 60.52 24.39C57.58 20.82 54.33 17.4 51.04 14.2L36.89 0.5L36.54 0.16L36.37 0L36.2 0.17L35.85 0.5L21.72 14.21C18.43 17.4 15.18 20.83 12.24 24.4C11.28 25.56 10.36 26.74 9.47996 27.93C5.87996 32.78 2.96996 37.85 1.36996 42.93C1.21996 43.4 1.08996 43.87 0.959961 44.34C0.989961 44.28 15.05 20.68 36.38 8.62C57.71 20.68 71.76 44.28 71.8 44.33Z" fill="#00A2FF"/>
<path fill-rule="evenodd" clip-rule="evenodd" d="M10.8 77.11C5.67999 72.17 2.59999 66.85 1.09999 61.34C-0.400009 55.8 -0.290009 50.07 0.949991 44.33C0.979991 44.27 15.04 20.67 36.37 8.61C35.31 9.71 34.16 10.88 32.96 12.09C29.3 15.82 25.2 19.99 21.38 24.39C15.88 30.73 10.95 37.57 8.65999 44.33C5.80999 54.76 8.20999 64.59 14.94 71.4C13.6 73.37 12.22 75.28 10.8 77.11ZM61.95 77.11C67.07 72.17 70.15 66.85 71.65 61.34C73.15 55.8 73.04 50.07 71.8 44.33C71.77 44.27 57.71 20.67 36.38 8.61C37.44 9.71 38.59 10.88 39.79 12.09C43.45 15.82 47.55 19.99 51.37 24.39C56.87 30.73 61.8 37.57 64.09 44.33C66.95 54.76 64.55 64.59 57.82 71.39C59.15 73.37 60.53 75.28 61.95 77.11Z" fill="#1CEDED"/>
<path fill-rule="evenodd" clip-rule="evenodd" d="M36.37 24.57C29.65 41.08 19.95 59.86 6.84998 72.73C7.10998 73.04 9.16998 75.72 12.58 78.92C13.35 79.65 14.2 80.4 15.11 81.16C25.46 66.23 30.84 43.67 36.38 25.8V24.57H36.37Z" fill="#00D9F5"/>
<path fill-rule="evenodd" clip-rule="evenodd" d="M36.37 24.57C43.09 41.08 52.8 59.86 65.9 72.73C65.64 73.04 63.58 75.72 60.17 78.92C59.4 79.65 58.55 80.4 57.64 81.16C47.3 66.22 41.91 43.67 36.37 25.79V24.57Z" fill="#00D9F5"/>
</g>
<defs>
<clipPath id="clip0_64_540">
<rect width="230" height="89.38" fill="white"/>
</clipPath>
</defs>
</svg>
