<svg width="221" height="86" viewBox="0 0 221 86" fill="none" xmlns="http://www.w3.org/2000/svg">
<path fill-rule="evenodd" clip-rule="evenodd" d="M109.444 26.78V44.45H113.814V35.13C113.814 31.87 115.924 30.65 118.224 30.65C119.654 30.65 120.484 31.04 121.374 31.8L123.344 28C122.374 27.03 120.624 26.32 118.794 26.32C117.004 26.32 115.174 26.64 113.814 28.83L113.494 26.79H109.444V26.78ZM133.354 30.39C136.294 30.39 138.154 32.97 138.154 35.62C138.154 38.31 136.544 40.82 133.354 40.82C130.164 40.82 128.554 38.31 128.554 35.62C128.544 32.98 130.194 30.39 133.354 30.39ZM133.314 26.42C127.684 26.42 124.174 30.58 124.174 35.63C124.174 40.72 127.614 44.84 133.344 44.84C139.074 44.84 142.554 40.72 142.554 35.63C142.564 30.57 138.944 26.42 133.314 26.42ZM162.954 44.44V35.16C162.954 29.6 159.624 26.49 155.464 26.49C153.244 26.49 151.454 27.39 149.654 29.14L149.364 26.74H145.454V44.44H149.794V35.41C149.794 32.72 151.624 30.46 154.314 30.46C157.114 30.46 158.574 32.5 158.574 35.19V44.44H162.954ZM167.754 22.26V26.81H164.454V30.57H167.754V38.2C167.754 42.61 170.264 44.79 174.094 44.65C175.424 44.61 176.464 44.4 177.714 43.9L176.494 40.17C175.844 40.49 175.064 40.71 174.384 40.71C173.024 40.71 172.094 39.89 172.094 38.2V30.57H177.004V26.81H172.134V21.79L167.754 22.26ZM179.874 21.79C179.874 25.19 185.034 25.19 185.034 21.79C185.034 18.39 179.874 18.39 179.874 21.79ZM184.634 26.7V44.44H180.264V26.7H184.634ZM192.374 33.55C193.014 31.26 194.954 30.11 197.324 30.11C199.834 30.11 201.624 31.26 201.914 33.55H192.374ZM206.104 37.17C206.784 29.89 203.094 26.24 197.184 26.24C191.454 26.24 187.794 30.11 187.794 35.49C187.794 41.15 191.414 44.91 197.504 44.91C200.194 44.91 203.234 43.98 205.104 42.04L202.304 39.28C201.304 40.32 199.184 40.93 197.574 40.93C194.494 40.93 192.594 39.35 192.304 37.17H206.104ZM209.474 26.78V44.45H213.844V35.13C213.844 31.87 215.954 30.65 218.254 30.65H218.294H220.174V26.44C219.734 26.36 219.284 26.31 218.834 26.31C217.044 26.31 215.214 26.63 213.854 28.82L213.534 26.78H209.474ZM94.4838 58.84H91.4638L92.9738 55.37L94.4838 58.84ZM95.7838 61.8H97.4638L93.8138 53.65H92.1438L88.4938 61.8H90.1538L90.8538 60.26H95.1138L95.7838 61.8ZM108.854 55.1H110.534C112.304 55.1 113.044 56.37 113.084 57.64C113.114 58.97 112.384 60.32 110.534 60.32H108.854V55.1ZM110.524 53.65C109.524 53.65 108.324 53.65 107.324 53.65V61.8C108.324 61.8 109.524 61.8 110.524 61.8C113.374 61.8 114.634 59.72 114.594 57.65C114.564 55.64 113.314 53.65 110.524 53.65ZM132.694 53.65H130.974L128.504 60L126.054 53.65H124.334L127.714 61.84H129.304L132.694 53.65ZM144.574 61.8V53.65H143.054V61.8H144.574ZM161.894 55C161.274 53.74 159.964 53.38 158.694 53.38C157.194 53.39 155.544 54.08 155.544 55.75C155.544 57.58 157.084 58.02 158.744 58.22C159.824 58.34 160.624 58.65 160.624 59.42C160.624 60.3 159.714 60.64 158.754 60.64C157.764 60.64 156.824 60.24 156.464 59.35L155.184 60.01C155.794 61.5 157.064 62.01 158.734 62.01C160.544 62.01 162.154 61.23 162.154 59.42C162.154 57.48 160.574 57.04 158.874 56.83C157.894 56.71 157.064 56.52 157.064 55.81C157.064 55.21 157.614 54.73 158.754 54.73C159.634 54.73 160.404 55.17 160.684 55.64L161.894 55ZM176.564 54.89C178.484 54.89 179.254 56.43 179.224 57.8C179.204 59.14 178.484 60.58 176.564 60.58C174.644 60.58 173.924 59.15 173.884 57.81C173.854 56.44 174.644 54.89 176.564 54.89ZM176.564 53.5C173.754 53.5 172.374 55.65 172.374 57.79C172.374 59.93 173.704 61.99 176.564 61.99C179.424 61.99 180.714 59.88 180.744 57.78C180.754 55.65 179.364 53.5 176.564 53.5ZM195.144 55.08C196.114 55.08 196.544 55.73 196.544 56.39C196.544 57.04 196.124 57.7 195.144 57.7H192.804V55.08H195.144ZM198.484 61.7L196.014 58.92C197.564 58.61 198.074 57.48 198.074 56.36C198.074 54.95 197.064 53.67 195.144 53.66C193.854 53.67 192.564 53.66 191.274 53.66V61.81H192.814V59.09H194.294L196.664 61.81H198.494V61.7H198.484ZM209.874 53.65H208.044V53.72L211.174 58.44V61.81H212.714V58.44L215.964 53.72V53.65H214.114L211.954 57.02L209.874 53.65ZM93.2138 44.44V35.16H105.794V30.79H93.2138V23.94H106.514V19.39H88.4838V44.44H93.2138Z" fill="white"/>
<path d="M126.794 79.37V73.58H125.714V76.02H122.864V73.58H121.774V79.37H122.864V77.03H125.714V79.37H126.794Z" fill="white"/>
<path d="M153.474 75.42H154.264L154.914 73.56H153.864L153.474 75.42Z" fill="white"/>
<path d="M136.854 73.58V76.9C136.854 77.89 136.344 78.5 135.434 78.5C134.534 78.5 133.934 77.94 133.934 76.9V73.58H132.844V76.9C132.844 78.65 134.024 79.49 135.424 79.49C136.884 79.49 137.934 78.61 137.934 76.9V73.58H136.854Z" fill="white"/>
<path d="M144.024 73.56V79.37H148.104V78.36H145.114V73.56H144.024Z" fill="white"/>
<path d="M176.114 79.37V73.58H175.034V76.02H172.184V73.58H171.084V79.37H172.184V77.03H175.034V79.37H176.114Z" fill="white"/>
<path d="M186.494 78.29H183.234V76.98H186.374V75.96H183.234V74.62H186.494V73.56H182.154C182.154 75.5 182.154 77.44 182.154 79.37H186.494V78.29Z" fill="white"/>
<path d="M164.954 77.88C164.574 78.26 164.004 78.47 163.494 78.47C162.064 78.47 161.504 77.47 161.494 76.51C161.484 75.54 162.094 74.5 163.494 74.5C164.004 74.5 164.514 74.67 164.894 75.05L165.624 74.35C165.024 73.76 164.284 73.46 163.494 73.46C161.394 73.46 160.414 75 160.424 76.52C160.434 78.03 161.344 79.51 163.494 79.51C164.334 79.51 165.104 79.24 165.694 78.65L164.954 77.88Z" fill="white"/>
<path fill-rule="evenodd" clip-rule="evenodd" d="M34.8138 23.52C28.3838 39.32 19.0938 57.3 6.55383 69.62C6.80383 69.91 8.77383 72.48 12.0338 75.55C12.7738 76.25 13.5838 76.96 14.4538 77.69C24.3538 63.4 29.5138 41.81 34.8138 24.69V23.52Z" fill="white"/>
<path fill-rule="evenodd" clip-rule="evenodd" d="M34.8138 24.69C29.5138 41.8 24.3538 63.39 14.4538 77.69C18.0338 80.89 20.5438 82.62 26.0238 85.53L26.0738 85.56L34.8138 31L43.5438 85.56L43.5938 85.53C49.0738 82.62 51.5938 80.89 55.1638 77.69C45.2738 63.39 40.1138 41.81 34.8138 24.69Z" fill="white"/>
<path fill-rule="evenodd" clip-rule="evenodd" d="M34.8138 23.52C27.8638 35.29 19.3538 49.99 8.50385 58.98C9.66385 62.54 10.9538 64.29 12.7338 66.62C21.7138 54.86 28.3438 38.11 34.6538 24.69L34.8138 23.52Z" fill="white"/>
<path fill-rule="evenodd" clip-rule="evenodd" d="M34.8138 23.52C41.7638 35.28 50.2638 49.99 61.1238 58.98C59.9638 62.54 58.6738 64.29 56.8938 66.62C47.9138 54.86 41.2838 38.11 34.9738 24.69L34.8138 23.52Z" fill="white"/>
<path d="M68.7238 42.44C68.6038 41.99 68.4738 41.54 68.3338 41.09C66.8038 36.23 64.0138 31.38 60.5638 26.73C59.7238 25.59 58.8338 24.46 57.9238 23.35C55.1038 19.93 52.0038 16.65 48.8438 13.6L35.3138 0.48L34.9838 0.16L34.8138 0L34.6538 0.16L34.3238 0.48L20.7838 13.61C17.6338 16.67 14.5238 19.94 11.7038 23.36C10.7838 24.47 9.90384 25.6 9.06384 26.74C5.61384 31.39 2.83384 36.23 1.29384 41.1C1.15384 41.55 1.02384 42 0.903839 42.45C0.933839 42.38 14.3938 19.79 34.8138 8.25C55.2338 19.79 68.6938 42.38 68.7238 42.44Z" fill="white"/>
<path fill-rule="evenodd" clip-rule="evenodd" d="M10.3338 73.82C5.42384 69.09 2.48384 64 1.05384 58.72C-0.37616 53.42 -0.27616 47.93 0.90384 42.44C0.93384 42.38 14.3938 19.79 34.8138 8.25C33.7938 9.3 32.6938 10.42 31.5538 11.59C28.0438 15.16 24.1238 19.15 20.4738 23.37C15.2138 29.44 10.4838 35.99 8.29384 42.45C5.55384 52.43 7.85384 61.84 14.2938 68.35C13.0138 70.23 11.6938 72.06 10.3338 73.82ZM59.2938 73.82C64.2038 69.09 67.1438 64 68.5738 58.72C70.0038 53.42 69.9038 47.93 68.7238 42.44C68.6938 42.38 55.2338 19.79 34.8138 8.25C35.8338 9.3 36.9338 10.42 38.0738 11.59C41.5838 15.16 45.5038 19.15 49.1538 23.37C54.4138 29.44 59.1438 35.99 61.3338 42.45C64.0738 52.43 61.7738 61.84 55.3338 68.35C56.6138 70.23 57.9338 72.06 59.2938 73.82Z" fill="white"/>
<path fill-rule="evenodd" clip-rule="evenodd" d="M34.8138 23.52C28.3838 39.32 19.0938 57.3 6.55383 69.62C6.80383 69.91 8.77383 72.48 12.0338 75.55C12.7738 76.25 13.5838 76.96 14.4538 77.69C24.3538 63.4 29.5138 41.81 34.8138 24.69V23.52Z" fill="white"/>
<path fill-rule="evenodd" clip-rule="evenodd" d="M34.8138 23.52C41.2438 39.32 50.5338 57.3 63.0738 69.62C62.8238 69.91 60.8538 72.48 57.5938 75.55C56.8538 76.25 56.0438 76.96 55.1738 77.69C45.2738 63.4 40.1138 41.81 34.8138 24.69V23.52Z" fill="white"/>
</svg>
