<svg width="427" height="490" viewBox="0 0 427 490" fill="none" xmlns="http://www.w3.org/2000/svg">
<path d="M234.26 106.437C234.26 106.437 234.39 109.397 232.39 111.777C230.39 114.157 228.58 112.917 228.87 116.727C229.16 120.537 226.97 119.387 227.35 121.957C227.73 124.527 231.35 122.707 231.35 126.137C231.35 129.567 230.61 134.037 234.26 134.227C237.91 134.417 239.72 131.847 241.81 133.367C243.9 134.887 243.43 136.697 247.9 136.987C252.37 137.277 258.08 136.317 256.46 138.797C254.84 141.267 254.08 145.457 255.6 147.357C257.12 149.257 259.5 151.067 258.26 153.157C257.02 155.247 257.52 156.107 258.6 158.107C259.68 160.107 259.02 160.677 261.87 163.907C264.72 167.147 264.25 165.237 266.15 165.237C268.05 165.237 269.96 166.567 270.81 164.947C271.67 163.327 271.48 162.377 273.38 162.287C275.28 162.187 278.14 160.287 277.47 158.577C276.8 156.867 275.19 157.717 274.71 154.957C274.23 152.197 270.71 149.347 271.66 148.297C272.61 147.247 276.23 149.817 277.56 149.917C278.89 150.017 279.65 148.867 280.32 150.297C280.99 151.727 281.37 149.917 282.6 149.057C283.84 148.197 285.26 149.247 289.36 148.107C293.45 146.967 293.36 143.347 292.41 142.587C291.46 141.827 289.75 143.637 290.22 140.117C290.7 136.597 289.84 135.077 292.22 134.887C294.6 134.697 293.02 133.027 292.95 132.197C292.88 131.367 297.59 127.057 297.59 127.057" stroke="#1D1D1B" stroke-miterlimit="10" stroke-linecap="round" stroke-linejoin="round"/>
<path d="M310.84 138.707C310.84 138.707 309.93 140.987 310.84 142.697C311.75 144.407 308.9 144.027 307.75 145.267C306.61 146.507 304.69 148.407 306.22 150.307C307.75 152.207 308.32 152.877 309.08 155.447C309.84 158.017 310.91 158.307 308.33 161.057C305.75 163.817 305.84 164.957 301.94 164.487C298.04 164.007 298.04 161.917 296.71 159.157C295.38 156.397 295.66 155.257 296.71 153.447C297.76 151.637 299.37 150.787 297.61 148.977C295.85 147.167 295.28 144.407 295.37 143.937C295.47 143.457 294.37 142.277 292.73 143.017" stroke="#1D1D1B" stroke-miterlimit="10" stroke-linecap="round" stroke-linejoin="round"/>
<path d="M326.1 139.257C326.1 139.257 327.88 141.747 326.1 143.557C324.32 145.367 326.17 148.317 326.1 151.167C326.03 154.017 326.12 157.637 324.7 157.927C323.27 158.217 323.56 156.787 320.32 157.257C317.08 157.737 317.66 157.547 317.37 158.777C317.08 160.017 316.04 161.247 314.04 161.057C312.04 160.867 310.61 159.057 310.61 159.057" stroke="#1D1D1B" stroke-miterlimit="10" stroke-linecap="round" stroke-linejoin="round"/>
<path d="M340.55 148.537C340.55 148.537 338.59 151.167 336.49 153.447C334.4 155.727 334.59 158.487 333.06 159.247C331.54 160.007 328.87 159.537 326.49 159.917C324.11 160.297 323.35 157.617 323.35 157.617" stroke="#1D1D1B" stroke-miterlimit="10" stroke-linecap="round" stroke-linejoin="round"/>
<path d="M197.37 163.867C197.37 163.867 200.89 162.677 201.08 163.867C201.27 165.057 203.27 168.297 205.93 168.297C208.59 168.297 210.5 166.397 212.21 168.297C213.92 170.197 214.4 171.247 217.25 171.247C220.1 171.247 220.29 172.767 221.15 174.577C222.01 176.387 223.91 174.577 224.96 176.857C226.01 179.137 226.48 183.047 228.67 183.237C230.86 183.427 234.95 183.427 236.09 182.667C237.23 181.907 238.37 181.717 240.28 182.767C242.18 183.817 245.32 183.627 243.42 185.337C241.52 187.047 241.23 188.477 241.61 189.527C241.99 190.577 243.99 191.527 244.46 191.527C244.93 191.527 246.65 187.907 246.65 185.627C246.65 183.347 247.51 181.347 248.17 179.157C248.84 176.967 245.79 173.547 245.51 171.447C245.22 169.357 244.08 168.977 245.41 168.207C246.74 167.447 247.98 167.607 246.65 165.817C245.32 164.027 245.13 163.357 246.46 162.217C247.79 161.077 251.03 162.117 253.98 161.647C256.93 161.167 258.82 158.557 258.82 158.557" stroke="#1D1D1B" stroke-miterlimit="10" stroke-linecap="round" stroke-linejoin="round"/>
<path d="M191.09 186.847C191.09 186.847 190.23 188.467 191.76 189.897C193.28 191.327 189.86 192.937 191.76 194.087C193.66 195.227 195.76 191.517 196.9 194.087C198.04 196.657 199.09 192.697 199.66 190.587C200.23 188.477 200.42 186.767 205.75 186.007C211.08 185.247 214.98 180.587 215.46 178.297C215.94 176.017 218.13 171.317 218.13 171.317" stroke="#1D1D1B" stroke-miterlimit="10" stroke-linecap="round" stroke-linejoin="round"/>
<path d="M244.48 191.517C244.48 191.517 242.1 190.087 239.25 191.517C236.4 192.947 236.2 194.177 233.54 194.467C230.88 194.757 230.59 195.227 229.92 197.317C229.25 199.407 228.02 197.987 226.3 200.937C224.59 203.887 226.2 205.027 224.87 206.937C223.54 208.837 224.77 210.747 226.3 214.457C227.82 218.167 228.3 218.737 230.96 219.597C233.62 220.457 233.06 223.027 234.39 222.547C235.72 222.067 238.86 218.647 240.29 220.167C241.72 221.687 240.77 222.357 241.34 225.117C241.91 227.877 240.48 227.207 244.48 227.777C248.48 228.347 249.62 230.347 248.76 232.537C247.9 234.727 247.87 237.007 249.03 239.957C250.19 242.907 250.44 243.287 249.03 246.427C247.62 249.567 246.67 250.237 248 252.327C249.33 254.417 250.09 255.467 248.48 257.657C246.86 259.847 244.58 262.417 244.39 264.417C244.2 266.417 241.39 266.587 241.39 266.587" stroke="#1D1D1B" stroke-miterlimit="10" stroke-linecap="round" stroke-linejoin="round"/>
<path d="M265.17 483.527C265.17 483.527 262.6 484.177 257.04 484.607C251.48 485.037 250.62 484.317 250.62 481.897C250.62 479.467 250.05 471.187 246.05 470.337C242.05 469.477 245.05 467.057 239.2 464.057C233.35 461.057 228.92 462.487 228.92 459.487C228.92 456.487 225.49 455.777 224.78 452.347C224.07 448.917 225.21 444.777 228.49 443.637C231.77 442.497 232.77 440.497 232.91 435.357C233.05 430.217 232.62 426.647 234.48 425.937C236.34 425.227 237.05 420.227 235.76 418.367C234.48 416.507 231.19 414.367 233.19 411.657C235.19 408.947 235.9 406.377 234.33 401.377C232.76 396.377 232.47 389.817 234.62 387.677C236.76 385.537 239.33 381.687 237.19 377.687C235.05 373.687 239.05 365.407 240.9 363.837C242.76 362.267 246.4 357.837 244.86 354.697C243.32 351.557 241.04 346.137 242.32 343.137C243.6 340.137 239.32 337.427 241.75 332.857C244.18 328.287 245.46 326.287 245.46 320.007C245.46 313.727 250.6 314.727 252.31 309.447C254.02 304.167 251.6 300.737 253.74 298.027C255.88 295.317 260.31 293.177 258.02 289.607C255.74 286.037 254.45 286.607 254.17 281.757C253.88 276.907 251.17 276.757 251.46 274.337C251.75 271.907 251.32 268.507 249.03 266.567C246.75 264.627 246.73 259.907 246.73 259.907" stroke="#1D1D1B" stroke-miterlimit="10" stroke-linecap="round" stroke-linejoin="round"/>
<path d="M304.18 355.367C304.18 355.367 302.57 353.707 303.14 351.997C303.71 350.287 306.03 351.567 306.23 348.287C306.43 345.007 301.57 343.147 303.86 339.297C306.14 335.447 306.86 330.157 309.28 329.737C311.71 329.307 312.99 328.597 313.85 331.017C314.71 333.447 316.13 337.297 316.99 336.297C317.85 335.297 318.7 333.587 321.27 336.727C323.84 339.867 327.84 339.007 328.12 341.577C328.41 344.147 329.55 351.577 329.55 351.577" stroke="#1D1D1B" stroke-miterlimit="10" stroke-linecap="round" stroke-linejoin="round"/>
<path d="M258.04 289.627C258.04 289.627 260.89 283.917 264.04 285.347C267.18 286.777 271.18 287.397 272.46 287.377C273.74 287.347 275.17 289.257 276.03 287.377C276.89 285.497 278.6 285.037 280.31 285.117C282.02 285.207 283.02 284.917 283.59 280.637C284.16 276.357 285.87 274.067 289.87 273.357C293.87 272.647 295.15 273.067 297.72 271.927C300.29 270.787 302.86 273.357 305.57 272.787C308.28 272.217 306.57 269.527 307.85 266.587C309.13 263.647 306.14 262.647 305.57 258.517C305 254.377 303.29 253.947 299 253.097C294.72 252.237 294.15 249.527 294.15 245.957C294.15 242.387 293.44 241.817 290.01 240.677C286.58 239.537 287.01 237.827 283.73 237.537C280.45 237.247 284.16 235.397 276.45 233.967C268.74 232.537 269.46 229.257 269.03 225.257C268.6 221.257 270.88 220.117 265.17 220.977C259.46 221.837 258.46 225.117 255.61 224.977C252.75 224.837 246.45 228.257 246.45 228.257" stroke="#1D1D1B" stroke-miterlimit="10" stroke-linecap="round" stroke-linejoin="round"/>
<path d="M309.28 329.737C309.28 329.737 309.57 324.457 313.28 323.457C316.99 322.457 318.42 320.317 320.42 318.037C322.42 315.757 325.84 317.177 327.27 312.617C328.7 308.047 327.14 304.197 325.56 303.767C323.98 303.337 324.98 301.497 324.55 297.357C324.12 293.207 321.84 296.207 320.55 296.207C319.26 296.207 319.27 292.777 317.27 289.637C315.27 286.497 314.99 288.067 310.85 286.207C306.71 284.347 306.71 284.777 307 281.787C307.29 278.787 305.57 272.797 305.57 272.797" stroke="#1D1D1B" stroke-miterlimit="10" stroke-linecap="round" stroke-linejoin="round"/>
<path d="M280.3 285.107C280.3 285.107 281.73 288.757 284.44 289.617C287.15 290.477 292.15 295.757 296.43 296.607C300.71 297.467 300 298.747 302 300.317C304 301.887 308.99 301.177 309.42 303.747C309.85 306.317 306.89 304.317 306.23 308.317C305.57 312.317 305.71 312.027 304 314.167C302.29 316.307 304.92 319.737 308.17 317.737C311.42 315.737 311.14 313.887 314.28 314.167C317.42 314.457 320.99 312.887 322.42 311.737C323.85 310.597 324.67 302.637 324.67 302.637" stroke="#1D1D1B" stroke-miterlimit="10" stroke-linecap="round" stroke-linejoin="round"/>
<path d="M424.04 216.967C419.47 224.817 417.91 225.667 414.34 226.807C410.77 227.947 411.91 235.947 409.21 235.797C406.49 235.647 404.91 235.237 405.06 236.937C405.21 238.657 406.2 238.927 404.35 241.647C402.48 244.367 404.21 254.357 405.06 257.057C405.91 259.777 403.21 260.627 402.21 262.767C401.21 264.907 403.62 269.347 400.34 271.637C397.06 273.907 399.78 277.097 396.91 279.797C394.06 282.477 395.64 286.327 393.77 286.617C391.92 286.907 392.48 288.607 388.35 290.047C384.22 291.477 377.51 289.047 373.36 292.477C369.23 295.907 370.37 296.897 364.08 297.187C357.81 297.477 359.38 304.037 356.81 304.457C354.24 304.897 354.82 305.597 354.67 310.747C354.52 315.877 356.81 321.877 352.53 322.167C348.25 322.457 349.25 329.017 346.53 332.297C343.81 335.577 341.11 339.997 340.67 338.567C340.25 337.137 341.4 336.427 341.81 333.857C342.25 331.297 344.09 330.577 341.1 330.577C338.09 330.577 341.24 334.877 339.23 336.867C337.24 338.857 336.82 338.717 335.53 343.287C334.39 347.367 332.21 349.957 329.53 351.567C329.2 351.767 328.88 351.967 328.53 352.127C325.39 353.707 325.25 355.987 322.11 356.277C318.96 356.547 318.25 359.267 314.12 356.277C309.97 353.267 309.97 355.137 306.42 354.847C304.86 354.717 304.19 354.937 304.17 355.357C304.15 355.897 305.17 356.767 306.69 357.677C309.41 359.277 310.26 359.837 308.12 361.407C305.98 362.987 308.56 365.267 310.84 365.687C313.12 366.127 312.11 369.257 307.27 372.977C302.41 376.677 306.27 377.397 301.56 378.957C296.85 380.537 294.42 381.237 289.14 380.967C283.86 380.677 283.43 381.527 283.99 383.527C284.57 385.537 284.72 384.667 283.14 385.957C281.58 387.247 282 389.097 282 391.957C282 394.807 279.3 393.947 277.58 393.657C275.88 393.387 273.72 392.517 271.16 393.237C268.59 393.947 270.31 399.237 270.43 399.797C270.58 400.357 272.71 401.647 275 400.797C277.28 399.947 278.15 404.927 276.29 405.217C274.44 405.507 273.3 402.647 271.3 404.217C269.29 405.797 272.71 406.647 271.86 407.647C271.01 408.647 270.86 405.657 269.01 407.647C267.14 409.637 267.94 412.357 268.01 414.357C268.06 416.347 266.51 415.717 266.29 417.707C266.07 419.697 264.93 419.427 261.5 420.277C258.07 421.127 257.15 423.417 257.87 426.837C258.58 430.267 263.71 428.047 264.58 430.477C265.43 432.907 265.14 433.827 264.22 436.047C263.3 438.257 262.72 438.477 259.07 441.757C255.44 445.037 255.64 446.257 255.52 448.247C255.37 450.237 253.87 450.747 251.59 451.237C249.31 451.747 248.53 454.587 248.45 455.737C248.38 456.877 247.45 460.737 249.74 463.537C252.02 466.307 252.24 466.307 250.52 466.817C248.82 467.307 248.31 468.107 249.31 468.667C250.31 469.247 253.03 471.727 251.74 473.307C250.45 474.887 254.02 478.587 257.02 480.447C260.03 482.297 266.88 482.857 265.6 484.727C264.31 486.577 263.17 489.297 258.89 489.007C254.59 488.717 255.03 486.437 251.46 487.017C247.89 487.577 241.18 487.307 239.62 483.447C238.04 479.587 237.61 476.037 234.05 474.457C230.48 472.877 222.48 471.737 223.19 466.607C223.92 461.457 219.62 458.467 220.05 455.747C220.48 453.047 223.04 445.907 221.63 443.057C220.2 440.197 218.35 431.197 220.05 429.767C221.77 428.357 221.19 420.777 223.77 419.637C226.33 418.497 226.76 412.227 227.2 409.937C227.62 407.657 229.76 399.947 228.49 399.807C227.2 399.667 228.2 400.947 225.92 402.797C223.64 404.667 223.49 407.797 222.2 407.797C220.91 407.797 220.91 403.787 222.34 401.377C223.77 398.947 225.62 397.947 225.48 394.667C225.34 391.367 225.63 387.087 226.48 384.097C227.35 381.107 224.63 373.967 225.92 370.967C227.21 367.957 228.35 365.527 230.78 362.247C233.19 358.967 231.49 353.687 234.33 350.557C237.19 347.407 235.62 346.697 235.33 337.847C235.06 328.997 235.62 328.997 236.47 328.417C237.34 327.857 234.91 326.857 235.47 323.997C236.05 321.147 238.48 313.157 239.48 309.007C240.48 304.877 242.18 299.867 241.76 295.027C241.32 290.167 238.48 289.457 241.32 282.607C244.18 275.757 243.04 269.187 241.76 267.177C241.65 267.017 241.52 266.797 241.4 266.557C241.38 266.557 241.38 266.557 241.38 266.557C239.91 263.997 236.72 257.887 230.05 256.047C222.78 254.057 210.92 247.487 211.07 244.067C211.22 240.637 211.22 241.787 209.49 237.917C207.79 234.077 203.07 227.927 201.22 222.217C199.35 216.507 196.22 209.087 191.94 206.807C187.66 204.527 185.65 202.097 186.94 200.387C188.23 198.667 184.95 190.957 187.38 189.527C189.79 188.097 189.66 188.097 191.08 186.847C191.1 186.827 191.1 186.827 191.1 186.827C192.51 185.537 191.37 184.107 190.37 183.817C189.37 183.547 187.67 181.537 188.38 179.977C189.09 178.397 189.23 176.407 189.38 174.537C189.52 172.687 190.67 170.407 193.53 168.847C196.38 167.267 197.37 163.847 197.37 163.847C197.37 163.847 195.67 161.417 198.66 160.127C201.65 158.837 199.22 155.847 202.65 155.417C206.08 154.997 207.22 151.137 206.66 148.857C206.08 146.577 206.08 144.437 206.81 139.867C207.52 135.297 202.95 133.487 203.53 132.177C204.09 130.867 207.1 124.017 210.51 122.877C212.29 122.277 212.76 122.497 213.07 122.227C214.36 122.537 216.42 122.427 217.75 122.247C219.93 121.957 216.28 119.007 216.77 117.827C217.15 116.867 216.86 116.177 215.97 115.547C216.86 113.767 217.69 112.987 219.38 112.897C221.94 112.747 222.66 115.037 224.22 112.897C225.8 110.757 225.36 110.617 227.79 110.467C229.57 110.357 232.27 107.767 234.28 106.427C235.02 105.917 235.68 105.597 236.15 105.627C237.85 105.757 238.43 106.257 237.93 107.187C237.44 108.107 236.57 108.257 235.94 109.107C235.31 109.977 235.43 110.757 236.09 112.537C236.72 114.327 233.95 115.767 233.3 117.827C232.67 119.897 234.44 122.887 236.87 122.597C239.3 122.327 238.65 120.117 238.12 117.397C237.59 114.677 238.08 113.047 239.81 112.467C241.51 111.907 244.58 111.267 244.8 110.477C245.02 109.697 244.8 107.417 245.58 107.557C246.38 107.697 246.31 109.547 247.94 109.917C249.59 110.257 252.31 109.767 252.94 111.697C253.57 113.617 252.94 116.407 257 116.267C261.08 116.117 261.01 114.837 264.51 116.557C268.01 118.257 268.86 118.767 271.71 117.117C274.57 115.487 278.83 115.427 279.16 114.957C279.49 114.487 278.83 114.867 278.98 114.197C279.11 113.527 279.63 113.347 280.74 113.617C281.83 113.907 282.79 114.147 284.2 114.347C285.63 114.527 285.69 115.727 284.2 115.957C282.73 116.197 282.64 116.917 282.35 117.337C282.06 117.777 283.2 118.477 284.25 118.447C285.3 118.397 289.05 119.157 290.29 119.917C291.52 120.677 292.34 121.907 291.01 122.347C289.67 122.767 289.76 124.527 289.58 125.107C289.38 125.667 291.63 126.017 293.57 125.637C295.53 125.257 295.71 125.677 296.82 126.397C297.07 126.557 297.35 126.797 297.67 127.087C298.74 128.007 300.17 129.407 301.91 129.767C304.14 130.237 304.19 130.237 304.23 132.217C304.28 134.197 306.99 134.397 308.71 135.627C310.18 136.697 309.98 138.397 310.89 138.727C311.04 138.777 311.22 138.797 311.43 138.767C312.99 138.587 314.13 137.297 314.8 138.297C315.47 139.297 318.41 139.727 320.75 139.297C321.78 139.097 323.83 138.967 326.15 139.277C329.03 139.637 332.35 140.677 334.74 143.047C337.91 146.237 339.29 147.217 340.6 148.557C341.05 149.007 341.51 149.537 342.01 150.187C344 152.757 341.72 157.477 346.02 159.177C350.3 160.897 349.45 163.037 347.72 164.597C346.02 166.177 345.87 166.467 343.15 168.897C340.43 171.307 344.29 172.177 346.29 170.887C348.3 169.597 350.15 169.747 351.71 170.597C353.29 171.447 356.86 170.307 356.28 172.177C355.72 174.027 353.43 177.887 355.14 177.887C356.86 177.887 356.72 175.727 358.44 174.587C360.14 173.447 362.99 173.177 365 174.877C366.99 176.597 375.55 175.317 376.13 177.887C376.69 180.447 374.14 185.157 376.13 185.157C378.12 185.157 377.69 181.877 380.12 182.457C382.55 183.017 387.82 185.867 391.69 185.157C395.55 184.447 399.25 182.727 402.4 187.147C405.54 191.567 408.82 193.997 413.24 194.437C417.66 194.877 421.67 192.007 422.81 198.157C423.91 204.257 428.6 209.117 424.04 216.967Z" stroke="#1D1D1B" stroke-miterlimit="10"/>
<path d="M94.7 36.4367C94.7 36.7067 94.7 36.9667 94.68 37.1767C94.64 40.0767 94.3 38.9867 92.78 43.5367C91.15 48.4167 93.52 52.8567 94.56 55.8067C95.6 58.7567 94.42 59.6467 95.59 60.8467C96.77 62.0267 94.41 66.4667 100.47 67.6467C106.54 68.8467 104.17 75.0467 107.72 75.2067C111.27 75.3567 116.02 74.3167 117.06 75.2067C118.09 76.0967 123.28 76.9967 126.98 75.2067C130.68 73.4267 130.37 74.0067 132.75 73.4267C135.12 72.8267 134.67 71.4867 133.78 66.1767C132.89 60.8467 133.04 58.3267 136.9 57.7267C140.74 57.1467 146.22 53.8867 149.32 55.0567C152.44 56.2567 152.93 58.7167 150.55 61.2767C148.19 63.8467 147.3 63.9467 149.66 66.2067C152.04 68.4867 150.26 69.4667 150.46 71.0467C150.66 72.6267 151.55 75.2867 150.35 75.4867C149.37 75.6467 147.7 74.5267 147.39 75.4167C147.39 75.4167 147.39 75.4167 147.37 75.4367C147.33 75.6167 147.32 75.8767 147.39 76.2367C147.79 78.4467 150.25 79.8267 149.66 81.3167C149.08 82.8067 149.77 85.5567 149.46 87.3367C149.33 88.1567 150.19 88.4967 151.36 88.4967C152.76 88.4967 154.61 88.0267 155.87 87.3367C158.24 86.0467 158.05 83.8767 161.11 84.0767C164.16 84.2767 165.93 84.1867 169.88 83.4967C173.83 82.8067 173.72 82.2067 174.21 83.5867C174.48 84.3267 175.59 84.5667 176.58 84.8367C177.45 85.0567 178.23 85.3267 178.36 85.9567C178.65 87.3367 176.58 89.1067 177.18 92.9567C177.76 96.7967 181.22 99.5767 179.54 100.947C177.87 102.327 176.88 106.367 178.56 107.947C179.09 108.457 179.79 109.347 180.59 110.337C180.61 110.337 180.61 110.337 180.61 110.337C182.31 112.457 184.49 115.137 186.45 115.737C186.45 115.737 185.47 116.227 185.18 117.627C184.89 119.007 186.74 120.187 185.65 121.267C184.56 122.357 185.65 125.147 185.65 125.147C185.14 125.057 184.6 124.767 183.78 124.417C181.71 123.527 183.09 123.037 180.03 121.167C176.98 119.277 178.76 119.087 175.41 119.387C172.06 119.677 174.21 117.697 170.17 117.307C166.13 116.927 169.59 113.177 164.15 110.197C160.56 108.237 159.31 105.337 157.9 103.847H157.88C157.17 103.087 156.41 102.687 155.27 102.997C155 103.067 154.71 103.137 154.44 103.237C151.36 104.067 148.37 104.977 146.1 102.707C143.63 100.237 137.82 103.397 132.99 101.017C131.83 100.457 130.74 99.6767 129.67 98.8067C129.67 98.8067 129.67 98.8067 129.67 98.7867C126.28 96.0267 123.11 92.3167 118.38 91.2667C112.16 89.8667 110.1 92.4467 106.25 92.7367C102.41 93.0467 98.55 90.4167 91.44 90.4167C84.35 90.4167 84.64 89.6867 79.17 86.7167C73.69 83.7567 74.51 83.7467 70.14 82.8767C69.4 82.7367 60.68 81.6967 58.16 77.1067C55.64 72.5167 54.9 70.8867 56.38 69.2567C57.85 67.6267 52.37 59.0467 49.87 57.7067C47.35 56.3867 47.64 54.7567 44.09 49.4267C40.54 44.0967 39.5 42.7767 34.63 38.9267C29.74 35.0667 25.31 30.0467 23.83 26.0367C22.34 22.0467 19.1 26.3467 18.21 18.0567C17.32 9.75669 11.85 5.76667 10.81 7.10667C9.76 8.42667 7.09 10.4967 10.81 15.8267C14.51 21.1567 13.31 24.8567 16.58 28.4067C19.84 31.9567 22.65 37.2867 22.35 38.6167C22.06 39.9567 27.97 47.9567 30.05 49.7267C32.12 51.4867 31.37 56.3767 29.9 56.0867C28.41 55.7767 26.93 49.4167 22.05 47.3467C17.17 45.2767 17.32 36.9767 16.12 33.7367C14.94 30.4767 11.1 28.4067 7.69 22.9367C4.28 17.4667 2.36 14.1967 2.07 9.61668C1.92 7.31668 1.63 4.10668 1.02 1.34668C1 1.34668 1 1.34668 1 1.34668" stroke="#1D1D1B" stroke-miterlimit="10"/>
<path d="M217.73 122.267C216.41 122.447 214.34 122.557 213.05 122.247C212.23 122.067 211.73 121.707 211.91 121.087C212.4 119.507 212.71 116.957 210.73 117.047C208.75 117.137 208.16 116.557 207.18 116.247C206.2 115.957 203.43 116.647 202.94 117.137C202.45 117.647 203.23 119.317 201.76 119.797C200.27 120.307 205.49 124.437 203.03 125.327C200.56 126.217 199.79 124.547 197.21 124.547C194.65 124.547 196.12 122.767 192.77 122.467C189.42 122.177 190.5 122.177 188.35 123.957C187.04 125.027 186.41 125.317 185.67 125.167C185.67 125.167 184.58 122.377 185.67 121.287C186.76 120.197 184.91 119.017 185.2 117.647C185.49 116.247 186.47 115.757 186.47 115.757C189.33 116.647 190.91 118.617 194.56 118.617C198.22 118.617 201.27 113.287 205.13 113.687C208.97 114.087 213.7 114.287 215.19 115.067C215.48 115.227 215.75 115.397 215.97 115.557C216.86 116.187 217.15 116.877 216.77 117.837C216.26 119.017 219.9 121.977 217.73 122.267Z" stroke="#1D1D1B" stroke-miterlimit="10"/>
<path d="M1 1.38667C1 1.38667 9.46 0.516667 10.2 1.38667C10.94 2.25667 11.53 4.91667 15.08 5.21667C18.63 5.51667 21.74 5.95667 25.14 7.43667C28.54 8.91667 35.06 8.76667 37.87 7.43667C40.68 6.10667 44.68 5.51668 47.64 6.25668C50.6 6.99668 51.64 7.58665 54.74 12.3267C57.85 17.0667 59.48 16.0267 62.14 18.8367C64.8 21.6467 64.36 15.5767 67.17 15.8767C69.98 16.1767 74.13 16.1767 76.05 20.7567C77.97 25.3467 81.53 24.6067 81.97 28.8967C82.41 33.1867 82.71 32.8967 87 35.4067C91.29 37.9267 94.69 37.1867 94.69 37.1867" stroke="#1D1D1B" stroke-miterlimit="10" stroke-linecap="round" stroke-linejoin="round"/>
<path d="M129.68 98.8468C129.68 98.8468 129.54 96.0268 129.68 93.4668C129.82 90.8968 132.78 90.0168 135.84 89.6168C138.9 89.2268 139.59 86.2668 138.6 85.1768C137.61 84.0868 135.74 81.4268 136.13 80.8368C136.52 80.2468 137.12 79.4568 139.88 79.4568C142.64 79.4568 142.74 79.8468 144.42 78.7668C146.1 77.6768 147.38 75.4468 147.38 75.4468" stroke="#1D1D1B" stroke-miterlimit="10" stroke-linecap="round" stroke-linejoin="round"/>
<path d="M149.46 87.3466C149.46 87.3466 148.28 87.4466 147.39 88.7266C146.5 90.0066 145.12 90.5966 144.73 89.1166C144.34 87.6366 145.22 85.1666 143.64 83.3966C142.06 81.6166 142.46 79.5166 142.46 79.5166" stroke="#1D1D1B" stroke-miterlimit="10" stroke-linecap="round" stroke-linejoin="round"/>
<path d="M151.34 88.4966C151.34 88.4966 152.52 89.9066 149.47 91.1966C146.41 92.4766 145.58 92.2866 145.95 93.6666C146.32 95.0466 147.3 95.7366 145.04 97.3166C142.77 98.8966 142.39 100.747 142.43 101.747" stroke="#1D1D1B" stroke-miterlimit="10" stroke-linecap="round" stroke-linejoin="round"/>
<path d="M154.45 103.257C154.45 103.257 155.68 101.447 154.99 99.5768C154.3 97.7068 150.31 96.1768 145.94 96.5468" stroke="#1D1D1B" stroke-miterlimit="10" stroke-linecap="round" stroke-linejoin="round"/>
<path d="M176.59 84.8367C176.59 84.8367 175.22 88.4267 173.83 89.1167C172.45 89.8067 169 87.9367 168.01 89.1167C167.02 90.2967 168.7 92.8667 167.52 94.1467C166.34 95.4267 163.87 92.7267 161.7 95.1167C159.53 97.5067 160.59 103.927 157.89 103.867" stroke="#1D1D1B" stroke-miterlimit="10" stroke-linecap="round" stroke-linejoin="round"/>
<path d="M167.24 112.697C167.24 112.697 168.11 110.727 171.37 110.037C174.63 109.347 174.23 109.347 175.81 110.037C177.39 110.727 180.62 110.357 180.62 110.357" stroke="#1D1D1B" stroke-miterlimit="10" stroke-linecap="round" stroke-linejoin="round"/>
</svg>
