<svg width="28" height="29" viewBox="0 0 28 29" fill="none" xmlns="http://www.w3.org/2000/svg">
<circle cx="14" cy="14.5" r="14" fill="white"/>
<path d="M6 14.0351C6 14.408 6.1646 14.7657 6.45758 15.0294C6.75056 15.2932 7.14793 15.4413 7.56227 15.4413L17.6688 15.4413L13.5652 19.1351C13.2893 19.4017 13.139 19.7542 13.1462 20.1186C13.1533 20.4829 13.3173 20.8305 13.6035 21.0881C13.8898 21.3458 14.2759 21.4934 14.6807 21.4998C15.0854 21.5062 15.4771 21.371 15.7733 21.1226L22.5431 15.0288C22.8357 14.7652 23 14.4077 23 14.0351C23 13.6624 22.8357 13.305 22.5431 13.0413L15.7733 6.94758C15.6302 6.80941 15.4578 6.6986 15.2661 6.62174C15.0745 6.54488 14.8676 6.50355 14.6578 6.50022C14.4481 6.49689 14.2397 6.53162 14.0452 6.60235C13.8506 6.67307 13.6739 6.77835 13.5256 6.91188C13.3772 7.04542 13.2603 7.20448 13.1817 7.37958C13.1031 7.55468 13.0645 7.74224 13.0682 7.93106C13.0719 8.11988 13.1179 8.30609 13.2033 8.47859C13.2886 8.65109 13.4117 8.80634 13.5652 8.93508L17.6688 12.6288L7.56227 12.6288C6.6999 12.6288 6 13.2588 6 14.0351Z" fill="black"/>
</svg>
